<svg xmlns="http://www.w3.org/2000/svg" xmlns:xlink="http://www.w3.org/1999/xlink" width="280.09415435791016" height="277.5329895019531" viewBox="0 0 280.09415435791016 277.5329895019531" fill="none">
<path d="M116.322 13.5068L116.357 13.5068L204.9 13.5068L271.769 13.5068L279.944 25.2927L279.944 238.386L259.415 268.97L209.361 268.97L168.531 268.97L157.603 258.606L157.578 258.581L157.547 258.581L101.959 258.581L101.927 258.581L101.9 258.608L91.6323 268.97L23.0777 268.97L0.150002 238.382L0.150002 13.423L10.0385 0.149994L104.326 0.149994L116.294 13.4759L116.322 13.5068L116.322 13.5068Z" stroke="rgba(56, 192, 255, 1)" stroke-width="0.30000001192092896"    fill-rule="evenodd"  fill="url(#linear_fill_68_2594)" fill-opacity="0.7">
</path>
<path d="M96.812 269.118L163.381 269.118L156.518 262.687L103.332 262.687L96.812 269.118L96.812 269.118Z" fill-rule="evenodd"  fill="#38C0FF" >
</path>
<path d="M262.203 269.118L280.046 269.118L280.046 241.909L262.203 269.118L262.203 269.118Z" fill-rule="evenodd"  fill="#1ABCFE" >
</path>
<path    stroke="rgba(56, 192, 255, 1)" stroke-width="1"    d="M154.457 267.634L166.467 277.033L263.918 277.033L274.898 260.708">
</path>
<path d="M112.251 0.00119019L261.859 0.00119019L268.722 7.91638L119.801 7.91638L112.251 0.00119019L112.251 0.00119019Z" fill-rule="evenodd"  fill="#38C0FF" >
</path>
<path d="M280.046 38.5878L280.046 34.6302L0.0464859 34.6302L0.0464859 38.5878L280.046 38.5878L280.046 38.5878Z" fill-rule="evenodd"  fill="url(#linear_fill_68_2599)" >
</path>
<g >
<path     fill="#5EFFFF"  d="M27.706 21.405Q27.706 22.477 27.25 23.285Q26.794 24.093 25.962 24.541Q25.13 24.989 24.058 24.989L18.906 24.989L18.906 12.173L23.834 12.173Q24.81 12.173 25.57 12.581Q26.33 12.989 26.754 13.733Q27.178 14.477 27.178 15.453Q27.178 16.493 26.65 17.205Q26.122 17.917 25.194 18.221Q26.346 18.525 27.026 19.349Q27.706 20.173 27.706 21.405ZM20.554 13.517L20.554 17.613L23.434 17.613Q24.41 17.613 24.962 17.069Q25.514 16.525 25.514 15.581Q25.514 14.605 24.946 14.061Q24.378 13.517 23.434 13.517L20.554 13.517ZM26.058 21.309Q26.058 20.205 25.418 19.589Q24.778 18.973 23.658 18.973L20.554 18.973L20.554 23.645L23.658 23.645Q24.778 23.645 25.418 23.021Q26.058 22.397 26.058 21.309ZM37.507 22.493Q38.163 22.061 38.627 21.621Q39.091 21.181 39.387 20.685Q39.683 20.189 39.819 19.613Q39.955 19.037 39.955 18.333L39.955 18.221L37.235 18.221L37.235 16.989L41.859 16.989L41.859 14.877L39.523 14.877Q39.347 15.341 39.147 15.773Q38.947 16.205 38.723 16.621L37.523 16.013Q38.003 15.053 38.419 14.005Q38.835 12.957 39.155 11.805L40.419 12.221Q40.307 12.605 40.203 12.965Q40.099 13.325 39.971 13.661L41.859 13.661L41.859 11.165L43.091 11.165L43.091 13.661L46.787 13.661L46.787 14.877L43.091 14.877L43.091 16.989L47.395 16.989L47.395 18.221L44.131 18.221L44.131 21.133Q44.131 21.373 44.147 21.517Q44.163 21.661 44.219 21.741Q44.275 21.821 44.387 21.845Q44.499 21.869 44.675 21.885Q44.755 21.885 44.891 21.885Q45.027 21.885 45.171 21.885Q45.315 21.885 45.435 21.885Q45.555 21.885 45.619 21.885Q45.763 21.885 45.859 21.853Q45.955 21.821 46.011 21.741Q46.067 21.661 46.107 21.517Q46.147 21.373 46.179 21.117Q46.211 20.909 46.235 20.557Q46.259 20.205 46.259 19.869L47.475 20.141Q47.459 20.445 47.427 20.901Q47.395 21.357 47.331 21.725Q47.219 22.429 46.915 22.733Q46.611 23.037 45.987 23.085Q45.811 23.101 45.571 23.109Q45.331 23.117 45.083 23.117Q44.835 23.117 44.595 23.109Q44.355 23.101 44.163 23.085Q42.883 22.989 42.883 21.869L42.883 18.221L41.251 18.221L41.251 18.349Q41.235 19.293 41.075 20.037Q40.915 20.781 40.579 21.389Q40.243 21.997 39.715 22.509Q39.187 23.021 38.419 23.501L37.507 22.493ZM34.979 22.365L34.979 17.997L33.155 17.997L33.155 16.669L36.339 16.669L36.339 22.397Q37.251 23.325 38.563 23.805Q39.875 24.285 41.875 24.397Q43.251 24.477 44.755 24.437Q46.259 24.397 47.699 24.253L47.475 25.645Q46.339 25.741 44.955 25.773Q43.571 25.805 41.683 25.709Q39.651 25.597 38.203 25.077Q36.755 24.557 35.715 23.629L33.987 25.885L32.915 24.845L34.979 22.365ZM34.659 11.645Q34.915 11.885 35.235 12.229Q35.555 12.573 35.923 13.037Q36.291 13.501 36.579 13.869Q36.867 14.237 37.043 14.509L35.987 15.421Q35.811 15.117 35.539 14.741Q35.267 14.365 34.899 13.901Q34.179 12.989 33.699 12.509L34.659 11.645ZM54.179 17.325Q55.171 17.021 56.019 16.693Q56.867 16.365 57.587 15.997Q56.915 15.453 56.275 14.717Q55.635 13.981 55.075 13.085L54.563 13.085L54.563 11.853L62.611 11.853L62.611 13.069Q61.603 14.813 59.971 16.013Q61.491 16.701 63.859 17.293L63.395 18.493Q60.403 17.677 58.755 16.765Q57.219 17.645 54.707 18.477L54.179 17.325ZM48.947 19.117Q49.827 18.845 51.315 18.205L51.315 15.277L49.331 15.277L49.331 13.981L51.315 13.981L51.315 11.069L52.627 11.069L52.627 13.981L54.275 13.981L54.275 15.277L52.627 15.277L52.627 17.645Q53.027 17.469 53.355 17.309Q53.683 17.149 53.971 17.005L54.355 18.285Q54.003 18.461 53.571 18.669Q53.139 18.877 52.627 19.101L52.627 24.029Q52.627 24.445 52.563 24.741Q52.499 25.037 52.339 25.237Q52.179 25.437 51.899 25.549Q51.619 25.661 51.187 25.725Q50.899 25.773 50.507 25.789Q50.115 25.805 49.859 25.805L49.571 24.349Q49.779 24.381 50.043 24.389Q50.307 24.397 50.547 24.397Q50.803 24.397 50.955 24.373Q51.107 24.349 51.187 24.269Q51.267 24.189 51.291 24.029Q51.315 23.869 51.315 23.581L51.315 19.693Q50.707 19.949 50.219 20.141Q49.731 20.333 49.331 20.461L48.947 19.117ZM58.051 22.237L58.051 20.525L54.547 20.525L54.547 19.325L58.051 19.325L58.051 17.725L59.347 17.725L59.347 19.325L62.867 19.325L62.867 20.525L59.347 20.525L59.347 22.237L63.555 22.237L63.555 23.485L59.347 23.485L59.347 26.029L58.051 26.029L58.051 23.485L53.843 23.485L53.843 22.237L58.051 22.237ZM56.483 13.085Q57.427 14.461 58.723 15.325Q60.195 14.349 61.011 13.085L56.483 13.085ZM78.579 11.629L78.579 15.757L75.539 15.757Q75.651 15.837 75.771 15.933Q75.891 16.029 76.019 16.157Q76.243 16.349 76.419 16.501Q76.595 16.653 76.723 16.781L76.323 17.181L79.283 17.181L79.283 18.381L74.403 18.381Q75.283 19.101 76.603 19.549Q77.923 19.997 79.843 20.317L79.427 21.549Q79.187 21.517 78.947 21.477Q78.707 21.437 78.483 21.389L78.483 25.485L73.075 25.485L73.075 20.701L76.131 20.701Q74.051 19.853 72.675 18.381L72.003 18.381Q71.731 18.749 71.411 19.061Q71.091 19.373 70.659 19.653Q70.227 19.933 69.675 20.189Q69.123 20.445 68.419 20.701L71.667 20.701L71.667 25.485L66.339 25.485L66.339 21.373L65.443 21.613L64.963 20.397Q66.883 19.997 68.123 19.501Q69.363 19.005 70.147 18.381L65.523 18.381L65.523 17.181L71.187 17.181Q71.555 16.573 71.779 15.821L73.171 16.077Q72.931 16.685 72.691 17.181L75.635 17.181Q75.555 17.101 75.467 17.029Q75.379 16.957 75.283 16.877Q75.043 16.685 74.859 16.533Q74.675 16.381 74.547 16.285L75.059 15.757L73.091 15.757L73.091 11.629L78.579 11.629ZM71.667 11.629L71.667 15.757L66.211 15.757L66.211 11.629L71.667 11.629ZM74.307 24.365L77.251 24.365L77.251 21.853L74.307 21.853L74.307 24.365ZM67.571 24.365L70.435 24.365L70.435 21.853L67.571 21.853L67.571 24.365ZM74.323 14.637L77.363 14.637L77.363 12.749L74.323 12.749L74.323 14.637ZM67.443 14.637L70.435 14.637L70.435 12.749L67.443 12.749L67.443 14.637Z">
</path>
</g>
<g >
<path     fill="#38C0FF"  d="M27.7685 57.3402Q28.1605 57.3262 28.4475 57.2422Q28.7345 57.1582 28.9165 57.0742Q29.5885 56.6962 30.4705 56.0242Q30.7505 55.8142 31.0025 55.6112Q31.2545 55.4082 31.4925 55.1982Q30.3585 55.2542 29.4415 55.2752Q28.5245 55.2962 27.8105 55.2682L27.6285 54.0642Q28.8745 54.0922 30.1905 54.0642Q31.5065 54.0362 33.0745 53.9522Q34.7965 53.8542 36.0775 53.7282Q37.3585 53.6022 38.2965 53.4342L38.5345 54.5962Q37.4985 54.7502 36.1545 54.8692Q34.8105 54.9882 33.0605 55.1002L32.5005 55.1422L32.7945 55.4782Q32.4585 55.7862 32.1715 56.0382Q31.8845 56.2902 31.5905 56.5142Q31.2965 56.7382 30.9885 56.9482Q30.6805 57.1582 30.3305 57.3682Q30.8905 57.3822 31.4435 57.3612Q31.9965 57.3402 32.5845 57.2982L33.9845 57.1862Q34.6005 56.7242 35.1605 56.2342Q35.7205 55.7442 36.2525 55.2542L37.0365 56.1502Q36.3645 56.7522 35.6435 57.3332Q34.9225 57.9142 34.1105 58.4882Q33.3125 59.0482 32.5495 59.5242Q31.7865 60.0002 31.0305 60.4062Q32.7665 60.4202 34.5865 60.3222Q35.1465 60.2942 35.6435 60.2522Q36.1405 60.2102 36.5885 60.1682Q36.1825 59.7202 35.8395 59.3842Q35.4965 59.0482 35.2165 58.8102L36.0985 58.0542Q36.7285 58.5722 37.6665 59.5802Q38.1425 60.0842 38.4925 60.5042Q38.8425 60.9242 39.0805 61.2602L38.2265 62.1002Q38.1005 61.9182 37.9395 61.7152Q37.7785 61.5122 37.5825 61.2882Q36.8265 61.3582 35.8885 61.4072Q34.9505 61.4562 33.8305 61.5122L33.8305 64.3402Q33.8165 64.6762 33.7535 64.9422Q33.6905 65.2082 33.5365 65.3972Q33.3825 65.5862 33.1235 65.6982Q32.8645 65.8102 32.4725 65.8662Q32.1085 65.9222 31.6395 65.9362Q31.1705 65.9502 30.8485 65.9362L30.5965 64.6762Q30.9185 64.7042 31.2405 64.7182Q31.5625 64.7322 31.8145 64.7182Q32.0805 64.7182 32.2415 64.6902Q32.4025 64.6622 32.4865 64.5852Q32.5705 64.5082 32.5985 64.3472Q32.6265 64.1862 32.6265 63.9062L32.6265 61.5682Q31.0865 61.6102 29.8545 61.6312Q28.6225 61.6522 27.6845 61.6382L27.5445 60.3642Q27.7545 60.3642 28.1045 60.3222Q28.4545 60.2802 28.6785 60.2102Q29.5745 59.9022 30.5265 59.4262Q31.4785 58.9502 32.4865 58.2782Q31.3245 58.3342 30.1905 58.3692Q29.0565 58.4042 27.9225 58.4182L27.7685 57.3402ZM35.4405 61.9882Q35.8885 62.2262 36.4695 62.5762Q37.0505 62.9262 37.6315 63.3042Q38.2125 63.6822 38.7235 64.0392Q39.2345 64.3962 39.5425 64.6342L38.8425 65.6562Q38.1145 65.0122 36.8545 64.2282Q36.2245 63.8222 35.7065 63.5142Q35.1885 63.2062 34.7825 63.0102L35.4405 61.9882ZM26.5645 64.6482Q26.9845 64.4382 27.5025 64.1092Q28.0205 63.7802 28.5455 63.4022Q29.0705 63.0242 29.5675 62.6322Q30.0645 62.2402 30.4425 61.9042L31.2265 62.8422Q30.8065 63.2062 30.3235 63.5842Q29.8405 63.9622 29.2945 64.3402Q28.7625 64.7182 28.2585 65.0472Q27.7545 65.3762 27.2925 65.6562L26.5645 64.6482ZM45.0305 58.8662Q45.2405 58.8662 45.4015 58.7472Q45.5625 58.6282 45.6605 58.5302Q45.8845 58.3062 46.1785 57.9352Q46.4725 57.5642 46.8365 57.0462Q47.0885 56.6962 47.3125 56.3742Q47.5365 56.0522 47.7325 55.7582L45.2545 55.7582L45.2545 54.6382L48.5025 54.6382L48.3065 54.0222Q48.2085 53.7282 48.1175 53.4972Q48.0265 53.2662 47.9565 53.0982L49.0765 52.8322Q49.2445 53.1682 49.4545 53.7562Q49.6645 54.3022 49.7485 54.6382L53.1365 54.6382L53.1365 55.7582L49.0485 55.7582L48.0965 57.1582Q47.7325 57.6902 47.4105 58.1032Q47.0885 58.5162 46.8085 58.8242Q47.5365 58.8102 48.6565 58.7472Q49.7765 58.6842 51.0365 58.5722Q50.6725 58.0542 50.3575 57.6482Q50.0425 57.2422 49.8045 56.9482L50.6725 56.3742Q51.1765 56.9202 51.9745 57.9982Q52.7585 59.0622 53.1365 59.7062L52.1985 60.4062Q52.0865 60.2242 51.9745 60.0142Q51.8625 59.8042 51.7085 59.5662Q51.4145 59.5942 51.1275 59.6152Q50.8405 59.6362 50.5605 59.6642L50.5605 64.0042Q50.5605 64.2422 50.5745 64.3822Q50.5885 64.5222 50.6585 64.5922Q50.7285 64.6622 50.8685 64.6832Q51.0085 64.7042 51.2605 64.7042Q51.5545 64.7042 51.7295 64.6832Q51.9045 64.6622 52.0025 64.5922Q52.1005 64.5222 52.1355 64.3682Q52.1705 64.2142 52.1985 63.9622Q52.2265 63.6122 52.2475 63.2762Q52.2685 62.9402 52.2965 62.6322L53.4165 62.9122Q53.3885 63.1922 53.3535 63.6402Q53.3185 64.0882 53.2765 64.4382Q53.1785 65.1382 52.9125 65.4462Q52.6465 65.7542 52.0305 65.8102Q51.7645 65.8382 51.3865 65.8452Q51.0085 65.8522 50.6305 65.8242Q50.2665 65.8102 50.0355 65.7332Q49.8045 65.6562 49.6715 65.4882Q49.5385 65.3202 49.4825 65.0472Q49.4265 64.7742 49.4265 64.3542L49.4265 59.7482L48.0125 59.8322L48.0125 60.6302Q47.9565 62.7302 47.2985 63.9762Q46.6545 65.1802 44.7785 66.3842L44.0785 65.3902Q45.8005 64.3682 46.3045 63.4582Q46.8225 62.5482 46.8785 60.5182L46.8785 59.8882L45.2265 59.9442L45.0305 58.8662ZM40.8725 60.9942Q41.0965 60.9662 41.2855 60.8402Q41.4745 60.7142 41.6145 60.5182Q41.8945 60.1262 42.2585 59.5732Q42.6225 59.0202 43.0705 58.2642Q43.0845 58.2362 43.0985 58.2082Q43.1125 58.1802 43.1405 58.1522Q42.9445 58.1802 42.7485 58.1942Q42.5525 58.2082 42.3425 58.2222Q41.8525 58.2642 41.4535 58.2922Q41.0545 58.3202 40.7605 58.3342L40.5505 57.2002Q40.7465 57.1582 40.8585 57.0812Q40.9705 57.0042 41.0965 56.8362Q41.2785 56.5982 41.5025 56.1992Q41.7265 55.8002 42.0345 55.2122Q42.6645 54.0082 43.0705 52.9582L44.1625 53.3782Q43.7565 54.3302 43.1405 55.4502Q42.5385 56.5842 42.0625 57.1722Q42.4265 57.1582 42.8885 57.1162Q43.3505 57.0742 43.7565 57.0182Q43.9665 56.6122 44.1625 56.2342Q44.3585 55.8562 44.5265 55.4922L45.5625 55.9822Q45.2825 56.5842 44.9325 57.2212Q44.5825 57.8582 44.1765 58.5722Q43.7705 59.2862 43.4205 59.8322Q43.0705 60.3782 42.7905 60.7842Q43.4625 60.6722 44.0505 60.5532Q44.6385 60.4342 45.1565 60.2942L45.1845 61.4842Q44.1345 61.6942 43.1125 61.8692Q42.0905 62.0442 41.0545 62.1702L40.8725 60.9942ZM40.4945 64.0182Q41.4325 63.9062 42.9025 63.5982Q43.6585 63.4302 44.2605 63.2832Q44.8625 63.1362 45.3105 63.0102L45.4785 64.2702Q45.0305 64.3962 44.4285 64.5362Q43.8265 64.6762 43.0705 64.8302Q42.3145 64.9842 41.7335 65.0962Q41.1525 65.2082 40.7045 65.2782L40.4945 64.0182ZM55.1665 57.3542Q56.6085 56.4862 57.9665 55.2122Q58.6665 54.5682 59.2055 53.9802Q59.7445 53.3922 60.1505 52.8322L61.1585 53.4062Q60.9765 53.6722 60.7945 53.9242Q60.6125 54.1762 60.4165 54.4142L66.2405 54.4142L66.2405 55.5062Q64.3365 57.7182 61.6905 59.3702Q61.4525 59.5242 61.2005 59.6642Q60.9485 59.8042 60.6965 59.9442L66.2125 59.9442L66.2125 65.6002L57.4065 65.6002L57.4065 61.4142Q56.8605 61.6102 56.2865 61.7922Q55.7125 61.9742 55.0965 62.1422L54.6065 60.9662Q56.4405 60.4342 57.9035 59.8462Q59.3665 59.2582 60.5845 58.5862Q62.9925 57.2282 64.6025 55.5342L59.4365 55.5342Q59.2685 55.7162 59.0935 55.8842Q58.9185 56.0522 58.7225 56.2202Q58.8905 56.3322 59.0725 56.4652Q59.2545 56.5982 59.4645 56.7522Q59.8705 57.0602 60.1785 57.3122Q60.4865 57.5642 60.7105 57.7602L59.8705 58.6422Q59.4365 58.2502 58.6665 57.6482Q58.4285 57.4522 58.2185 57.2912Q58.0085 57.1302 57.8125 57.0042Q57.3785 57.3542 56.9165 57.6832Q56.4545 58.0122 55.9505 58.3342L55.1665 57.3542ZM58.5965 64.4802L65.0365 64.4802L65.0365 61.1342L58.5965 61.1342L58.5965 64.4802ZM68.7745 54.2462Q69.1805 54.1902 69.6775 54.1062Q70.1745 54.0222 70.6925 53.9172Q71.2105 53.8122 71.7215 53.6932Q72.2325 53.5742 72.6805 53.4482L73.1565 54.5402Q72.8065 54.6382 72.4215 54.7222Q72.0365 54.8062 71.6305 54.8902L71.6305 56.8922L73.0305 56.8922L73.0305 57.9982L71.6305 57.9982L71.6305 58.8942Q71.8685 59.0902 72.1485 59.3352Q72.4285 59.5802 72.6875 59.8182Q72.9465 60.0562 73.1705 60.2802Q73.3945 60.5042 73.5205 60.6582L72.7785 61.5122Q72.4985 61.1482 72.2115 60.8332Q71.9245 60.5182 71.6305 60.2102L71.6305 66.0902L70.5525 66.0902L70.5525 60.5182L70.3845 60.9382Q70.0765 61.6942 69.7825 62.3102Q69.4885 62.9262 69.1805 63.4582L68.2985 62.9122Q68.6625 62.2542 69.0825 61.4352Q69.5025 60.6162 69.8245 59.8602Q70.0345 59.3842 70.2165 58.9152Q70.3985 58.4462 70.5525 57.9982L68.7185 57.9982L68.7185 56.8922L70.5525 56.8922L70.5525 55.0862Q70.1325 55.1562 69.7545 55.2122Q69.3765 55.2682 69.0685 55.3102L68.7745 54.2462ZM73.1285 57.9282Q73.4365 57.4382 73.7305 56.8572Q74.0245 56.2762 74.3045 55.6042Q74.5845 54.9322 74.8155 54.2462Q75.0465 53.5602 75.2005 52.9442L76.3625 53.1542Q76.2365 53.5882 76.0965 54.0152Q75.9565 54.4422 75.8025 54.8482L81.0385 54.8482L81.0385 55.9542Q80.7865 56.5842 80.5065 57.1582Q80.2265 57.7322 79.8905 58.3202L78.8405 57.9282Q79.1065 57.4802 79.3165 57.0252Q79.5265 56.5702 79.7645 55.9822L75.3685 55.9822Q75.0885 56.6542 74.7805 57.2702Q74.4725 57.8862 74.1505 58.4742L73.1285 57.9282ZM74.7385 64.7462Q75.0605 64.7742 75.3475 64.7742Q75.6345 64.7742 75.8585 64.7742Q76.0965 64.7742 76.2365 64.7532Q76.3765 64.7322 76.4465 64.6622Q76.5165 64.5922 76.5375 64.4522Q76.5585 64.3122 76.5585 64.0602L76.5585 57.0742L77.6925 57.0742L77.6925 64.5222Q77.6645 65.1382 77.3915 65.4532Q77.1185 65.7682 76.4325 65.8662Q76.1105 65.9082 75.7185 65.9222Q75.3265 65.9362 74.9625 65.9222L74.7385 64.7462ZM72.3025 64.2982Q72.6105 63.7662 72.9115 63.1712Q73.2125 62.5762 73.5345 61.8342Q73.8565 61.0922 74.1015 60.3712Q74.3465 59.6502 74.5425 59.0062L75.6485 59.3142Q75.2285 60.6862 74.5985 62.1702Q74.2905 62.9262 73.9685 63.5772Q73.6465 64.2282 73.3245 64.8022L72.3025 64.2982ZM79.3585 59.1042Q79.8765 60.0142 80.5765 61.6242Q80.9265 62.4362 81.1715 63.1292Q81.4165 63.8222 81.5705 64.3262L80.5765 64.7322Q80.4225 64.2422 80.1845 63.5912Q79.9465 62.9402 79.5965 62.1282Q79.2465 61.3162 78.9525 60.6792Q78.6585 60.0422 78.4065 59.5802L79.3585 59.1042Z">
</path>
</g>
<g >
<path     fill="#38C0FF"  d="M27.7685 117.34Q28.1605 117.326 28.4475 117.242Q28.7345 117.158 28.9165 117.074Q29.5885 116.696 30.4705 116.024Q30.7505 115.814 31.0025 115.611Q31.2545 115.408 31.4925 115.198Q30.3585 115.254 29.4415 115.275Q28.5245 115.296 27.8105 115.268L27.6285 114.064Q28.8745 114.092 30.1905 114.064Q31.5065 114.036 33.0745 113.952Q34.7965 113.854 36.0775 113.728Q37.3585 113.602 38.2965 113.434L38.5345 114.596Q37.4985 114.75 36.1545 114.869Q34.8105 114.988 33.0605 115.1L32.5005 115.142L32.7945 115.478Q32.4585 115.786 32.1715 116.038Q31.8845 116.29 31.5905 116.514Q31.2965 116.738 30.9885 116.948Q30.6805 117.158 30.3305 117.368Q30.8905 117.382 31.4435 117.361Q31.9965 117.34 32.5845 117.298L33.9845 117.186Q34.6005 116.724 35.1605 116.234Q35.7205 115.744 36.2525 115.254L37.0365 116.15Q36.3645 116.752 35.6435 117.333Q34.9225 117.914 34.1105 118.488Q33.3125 119.048 32.5495 119.524Q31.7865 120 31.0305 120.406Q32.7665 120.42 34.5865 120.322Q35.1465 120.294 35.6435 120.252Q36.1405 120.21 36.5885 120.168Q36.1825 119.72 35.8395 119.384Q35.4965 119.048 35.2165 118.81L36.0985 118.054Q36.7285 118.572 37.6665 119.58Q38.1425 120.084 38.4925 120.504Q38.8425 120.924 39.0805 121.26L38.2265 122.1Q38.1005 121.918 37.9395 121.715Q37.7785 121.512 37.5825 121.288Q36.8265 121.358 35.8885 121.407Q34.9505 121.456 33.8305 121.512L33.8305 124.34Q33.8165 124.676 33.7535 124.942Q33.6905 125.208 33.5365 125.397Q33.3825 125.586 33.1235 125.698Q32.8645 125.81 32.4725 125.866Q32.1085 125.922 31.6395 125.936Q31.1705 125.95 30.8485 125.936L30.5965 124.676Q30.9185 124.704 31.2405 124.718Q31.5625 124.732 31.8145 124.718Q32.0805 124.718 32.2415 124.69Q32.4025 124.662 32.4865 124.585Q32.5705 124.508 32.5985 124.347Q32.6265 124.186 32.6265 123.906L32.6265 121.568Q31.0865 121.61 29.8545 121.631Q28.6225 121.652 27.6845 121.638L27.5445 120.364Q27.7545 120.364 28.1045 120.322Q28.4545 120.28 28.6785 120.21Q29.5745 119.902 30.5265 119.426Q31.4785 118.95 32.4865 118.278Q31.3245 118.334 30.1905 118.369Q29.0565 118.404 27.9225 118.418L27.7685 117.34ZM35.4405 121.988Q35.8885 122.226 36.4695 122.576Q37.0505 122.926 37.6315 123.304Q38.2125 123.682 38.7235 124.039Q39.2345 124.396 39.5425 124.634L38.8425 125.656Q38.1145 125.012 36.8545 124.228Q36.2245 123.822 35.7065 123.514Q35.1885 123.206 34.7825 123.01L35.4405 121.988ZM26.5645 124.648Q26.9845 124.438 27.5025 124.109Q28.0205 123.78 28.5455 123.402Q29.0705 123.024 29.5675 122.632Q30.0645 122.24 30.4425 121.904L31.2265 122.842Q30.8065 123.206 30.3235 123.584Q29.8405 123.962 29.2945 124.34Q28.7625 124.718 28.2585 125.047Q27.7545 125.376 27.2925 125.656L26.5645 124.648ZM45.0305 118.866Q45.2405 118.866 45.4015 118.747Q45.5625 118.628 45.6605 118.53Q45.8845 118.306 46.1785 117.935Q46.4725 117.564 46.8365 117.046Q47.0885 116.696 47.3125 116.374Q47.5365 116.052 47.7325 115.758L45.2545 115.758L45.2545 114.638L48.5025 114.638L48.3065 114.022Q48.2085 113.728 48.1175 113.497Q48.0265 113.266 47.9565 113.098L49.0765 112.832Q49.2445 113.168 49.4545 113.756Q49.6645 114.302 49.7485 114.638L53.1365 114.638L53.1365 115.758L49.0485 115.758L48.0965 117.158Q47.7325 117.69 47.4105 118.103Q47.0885 118.516 46.8085 118.824Q47.5365 118.81 48.6565 118.747Q49.7765 118.684 51.0365 118.572Q50.6725 118.054 50.3575 117.648Q50.0425 117.242 49.8045 116.948L50.6725 116.374Q51.1765 116.92 51.9745 117.998Q52.7585 119.062 53.1365 119.706L52.1985 120.406Q52.0865 120.224 51.9745 120.014Q51.8625 119.804 51.7085 119.566Q51.4145 119.594 51.1275 119.615Q50.8405 119.636 50.5605 119.664L50.5605 124.004Q50.5605 124.242 50.5745 124.382Q50.5885 124.522 50.6585 124.592Q50.7285 124.662 50.8685 124.683Q51.0085 124.704 51.2605 124.704Q51.5545 124.704 51.7295 124.683Q51.9045 124.662 52.0025 124.592Q52.1005 124.522 52.1355 124.368Q52.1705 124.214 52.1985 123.962Q52.2265 123.612 52.2475 123.276Q52.2685 122.94 52.2965 122.632L53.4165 122.912Q53.3885 123.192 53.3535 123.64Q53.3185 124.088 53.2765 124.438Q53.1785 125.138 52.9125 125.446Q52.6465 125.754 52.0305 125.81Q51.7645 125.838 51.3865 125.845Q51.0085 125.852 50.6305 125.824Q50.2665 125.81 50.0355 125.733Q49.8045 125.656 49.6715 125.488Q49.5385 125.32 49.4825 125.047Q49.4265 124.774 49.4265 124.354L49.4265 119.748L48.0125 119.832L48.0125 120.63Q47.9565 122.73 47.2985 123.976Q46.6545 125.18 44.7785 126.384L44.0785 125.39Q45.8005 124.368 46.3045 123.458Q46.8225 122.548 46.8785 120.518L46.8785 119.888L45.2265 119.944L45.0305 118.866ZM40.8725 120.994Q41.0965 120.966 41.2855 120.84Q41.4745 120.714 41.6145 120.518Q41.8945 120.126 42.2585 119.573Q42.6225 119.02 43.0705 118.264Q43.0845 118.236 43.0985 118.208Q43.1125 118.18 43.1405 118.152Q42.9445 118.18 42.7485 118.194Q42.5525 118.208 42.3425 118.222Q41.8525 118.264 41.4535 118.292Q41.0545 118.32 40.7605 118.334L40.5505 117.2Q40.7465 117.158 40.8585 117.081Q40.9705 117.004 41.0965 116.836Q41.2785 116.598 41.5025 116.199Q41.7265 115.8 42.0345 115.212Q42.6645 114.008 43.0705 112.958L44.1625 113.378Q43.7565 114.33 43.1405 115.45Q42.5385 116.584 42.0625 117.172Q42.4265 117.158 42.8885 117.116Q43.3505 117.074 43.7565 117.018Q43.9665 116.612 44.1625 116.234Q44.3585 115.856 44.5265 115.492L45.5625 115.982Q45.2825 116.584 44.9325 117.221Q44.5825 117.858 44.1765 118.572Q43.7705 119.286 43.4205 119.832Q43.0705 120.378 42.7905 120.784Q43.4625 120.672 44.0505 120.553Q44.6385 120.434 45.1565 120.294L45.1845 121.484Q44.1345 121.694 43.1125 121.869Q42.0905 122.044 41.0545 122.17L40.8725 120.994ZM40.4945 124.018Q41.4325 123.906 42.9025 123.598Q43.6585 123.43 44.2605 123.283Q44.8625 123.136 45.3105 123.01L45.4785 124.27Q45.0305 124.396 44.4285 124.536Q43.8265 124.676 43.0705 124.83Q42.3145 124.984 41.7335 125.096Q41.1525 125.208 40.7045 125.278L40.4945 124.018ZM55.1665 117.354Q56.6085 116.486 57.9665 115.212Q58.6665 114.568 59.2055 113.98Q59.7445 113.392 60.1505 112.832L61.1585 113.406Q60.9765 113.672 60.7945 113.924Q60.6125 114.176 60.4165 114.414L66.2405 114.414L66.2405 115.506Q64.3365 117.718 61.6905 119.37Q61.4525 119.524 61.2005 119.664Q60.9485 119.804 60.6965 119.944L66.2125 119.944L66.2125 125.6L57.4065 125.6L57.4065 121.414Q56.8605 121.61 56.2865 121.792Q55.7125 121.974 55.0965 122.142L54.6065 120.966Q56.4405 120.434 57.9035 119.846Q59.3665 119.258 60.5845 118.586Q62.9925 117.228 64.6025 115.534L59.4365 115.534Q59.2685 115.716 59.0935 115.884Q58.9185 116.052 58.7225 116.22Q58.8905 116.332 59.0725 116.465Q59.2545 116.598 59.4645 116.752Q59.8705 117.06 60.1785 117.312Q60.4865 117.564 60.7105 117.76L59.8705 118.642Q59.4365 118.25 58.6665 117.648Q58.4285 117.452 58.2185 117.291Q58.0085 117.13 57.8125 117.004Q57.3785 117.354 56.9165 117.683Q56.4545 118.012 55.9505 118.334L55.1665 117.354ZM58.5965 124.48L65.0365 124.48L65.0365 121.134L58.5965 121.134L58.5965 124.48ZM68.7745 114.246Q69.1805 114.19 69.6775 114.106Q70.1745 114.022 70.6925 113.917Q71.2105 113.812 71.7215 113.693Q72.2325 113.574 72.6805 113.448L73.1565 114.54Q72.8065 114.638 72.4215 114.722Q72.0365 114.806 71.6305 114.89L71.6305 116.892L73.0305 116.892L73.0305 117.998L71.6305 117.998L71.6305 118.894Q71.8685 119.09 72.1485 119.335Q72.4285 119.58 72.6875 119.818Q72.9465 120.056 73.1705 120.28Q73.3945 120.504 73.5205 120.658L72.7785 121.512Q72.4985 121.148 72.2115 120.833Q71.9245 120.518 71.6305 120.21L71.6305 126.09L70.5525 126.09L70.5525 120.518L70.3845 120.938Q70.0765 121.694 69.7825 122.31Q69.4885 122.926 69.1805 123.458L68.2985 122.912Q68.6625 122.254 69.0825 121.435Q69.5025 120.616 69.8245 119.86Q70.0345 119.384 70.2165 118.915Q70.3985 118.446 70.5525 117.998L68.7185 117.998L68.7185 116.892L70.5525 116.892L70.5525 115.086Q70.1325 115.156 69.7545 115.212Q69.3765 115.268 69.0685 115.31L68.7745 114.246ZM73.1285 117.928Q73.4365 117.438 73.7305 116.857Q74.0245 116.276 74.3045 115.604Q74.5845 114.932 74.8155 114.246Q75.0465 113.56 75.2005 112.944L76.3625 113.154Q76.2365 113.588 76.0965 114.015Q75.9565 114.442 75.8025 114.848L81.0385 114.848L81.0385 115.954Q80.7865 116.584 80.5065 117.158Q80.2265 117.732 79.8905 118.32L78.8405 117.928Q79.1065 117.48 79.3165 117.025Q79.5265 116.57 79.7645 115.982L75.3685 115.982Q75.0885 116.654 74.7805 117.27Q74.4725 117.886 74.1505 118.474L73.1285 117.928ZM74.7385 124.746Q75.0605 124.774 75.3475 124.774Q75.6345 124.774 75.8585 124.774Q76.0965 124.774 76.2365 124.753Q76.3765 124.732 76.4465 124.662Q76.5165 124.592 76.5375 124.452Q76.5585 124.312 76.5585 124.06L76.5585 117.074L77.6925 117.074L77.6925 124.522Q77.6645 125.138 77.3915 125.453Q77.1185 125.768 76.4325 125.866Q76.1105 125.908 75.7185 125.922Q75.3265 125.936 74.9625 125.922L74.7385 124.746ZM72.3025 124.298Q72.6105 123.766 72.9115 123.171Q73.2125 122.576 73.5345 121.834Q73.8565 121.092 74.1015 120.371Q74.3465 119.65 74.5425 119.006L75.6485 119.314Q75.2285 120.686 74.5985 122.17Q74.2905 122.926 73.9685 123.577Q73.6465 124.228 73.3245 124.802L72.3025 124.298ZM79.3585 119.104Q79.8765 120.014 80.5765 121.624Q80.9265 122.436 81.1715 123.129Q81.4165 123.822 81.5705 124.326L80.5765 124.732Q80.4225 124.242 80.1845 123.591Q79.9465 122.94 79.5965 122.128Q79.2465 121.316 78.9525 120.679Q78.6585 120.042 78.4065 119.58L79.3585 119.104Z">
</path>
</g>
<g >
<path     fill="#38C0FF"  d="M27.7685 180.34Q28.1605 180.326 28.4475 180.242Q28.7345 180.158 28.9165 180.074Q29.5885 179.696 30.4705 179.024Q30.7505 178.814 31.0025 178.611Q31.2545 178.408 31.4925 178.198Q30.3585 178.254 29.4415 178.275Q28.5245 178.296 27.8105 178.268L27.6285 177.064Q28.8745 177.092 30.1905 177.064Q31.5065 177.036 33.0745 176.952Q34.7965 176.854 36.0775 176.728Q37.3585 176.602 38.2965 176.434L38.5345 177.596Q37.4985 177.75 36.1545 177.869Q34.8105 177.988 33.0605 178.1L32.5005 178.142L32.7945 178.478Q32.4585 178.786 32.1715 179.038Q31.8845 179.29 31.5905 179.514Q31.2965 179.738 30.9885 179.948Q30.6805 180.158 30.3305 180.368Q30.8905 180.382 31.4435 180.361Q31.9965 180.34 32.5845 180.298L33.9845 180.186Q34.6005 179.724 35.1605 179.234Q35.7205 178.744 36.2525 178.254L37.0365 179.15Q36.3645 179.752 35.6435 180.333Q34.9225 180.914 34.1105 181.488Q33.3125 182.048 32.5495 182.524Q31.7865 183 31.0305 183.406Q32.7665 183.42 34.5865 183.322Q35.1465 183.294 35.6435 183.252Q36.1405 183.21 36.5885 183.168Q36.1825 182.72 35.8395 182.384Q35.4965 182.048 35.2165 181.81L36.0985 181.054Q36.7285 181.572 37.6665 182.58Q38.1425 183.084 38.4925 183.504Q38.8425 183.924 39.0805 184.26L38.2265 185.1Q38.1005 184.918 37.9395 184.715Q37.7785 184.512 37.5825 184.288Q36.8265 184.358 35.8885 184.407Q34.9505 184.456 33.8305 184.512L33.8305 187.34Q33.8165 187.676 33.7535 187.942Q33.6905 188.208 33.5365 188.397Q33.3825 188.586 33.1235 188.698Q32.8645 188.81 32.4725 188.866Q32.1085 188.922 31.6395 188.936Q31.1705 188.95 30.8485 188.936L30.5965 187.676Q30.9185 187.704 31.2405 187.718Q31.5625 187.732 31.8145 187.718Q32.0805 187.718 32.2415 187.69Q32.4025 187.662 32.4865 187.585Q32.5705 187.508 32.5985 187.347Q32.6265 187.186 32.6265 186.906L32.6265 184.568Q31.0865 184.61 29.8545 184.631Q28.6225 184.652 27.6845 184.638L27.5445 183.364Q27.7545 183.364 28.1045 183.322Q28.4545 183.28 28.6785 183.21Q29.5745 182.902 30.5265 182.426Q31.4785 181.95 32.4865 181.278Q31.3245 181.334 30.1905 181.369Q29.0565 181.404 27.9225 181.418L27.7685 180.34ZM35.4405 184.988Q35.8885 185.226 36.4695 185.576Q37.0505 185.926 37.6315 186.304Q38.2125 186.682 38.7235 187.039Q39.2345 187.396 39.5425 187.634L38.8425 188.656Q38.1145 188.012 36.8545 187.228Q36.2245 186.822 35.7065 186.514Q35.1885 186.206 34.7825 186.01L35.4405 184.988ZM26.5645 187.648Q26.9845 187.438 27.5025 187.109Q28.0205 186.78 28.5455 186.402Q29.0705 186.024 29.5675 185.632Q30.0645 185.24 30.4425 184.904L31.2265 185.842Q30.8065 186.206 30.3235 186.584Q29.8405 186.962 29.2945 187.34Q28.7625 187.718 28.2585 188.047Q27.7545 188.376 27.2925 188.656L26.5645 187.648ZM45.0305 181.866Q45.2405 181.866 45.4015 181.747Q45.5625 181.628 45.6605 181.53Q45.8845 181.306 46.1785 180.935Q46.4725 180.564 46.8365 180.046Q47.0885 179.696 47.3125 179.374Q47.5365 179.052 47.7325 178.758L45.2545 178.758L45.2545 177.638L48.5025 177.638L48.3065 177.022Q48.2085 176.728 48.1175 176.497Q48.0265 176.266 47.9565 176.098L49.0765 175.832Q49.2445 176.168 49.4545 176.756Q49.6645 177.302 49.7485 177.638L53.1365 177.638L53.1365 178.758L49.0485 178.758L48.0965 180.158Q47.7325 180.69 47.4105 181.103Q47.0885 181.516 46.8085 181.824Q47.5365 181.81 48.6565 181.747Q49.7765 181.684 51.0365 181.572Q50.6725 181.054 50.3575 180.648Q50.0425 180.242 49.8045 179.948L50.6725 179.374Q51.1765 179.92 51.9745 180.998Q52.7585 182.062 53.1365 182.706L52.1985 183.406Q52.0865 183.224 51.9745 183.014Q51.8625 182.804 51.7085 182.566Q51.4145 182.594 51.1275 182.615Q50.8405 182.636 50.5605 182.664L50.5605 187.004Q50.5605 187.242 50.5745 187.382Q50.5885 187.522 50.6585 187.592Q50.7285 187.662 50.8685 187.683Q51.0085 187.704 51.2605 187.704Q51.5545 187.704 51.7295 187.683Q51.9045 187.662 52.0025 187.592Q52.1005 187.522 52.1355 187.368Q52.1705 187.214 52.1985 186.962Q52.2265 186.612 52.2475 186.276Q52.2685 185.94 52.2965 185.632L53.4165 185.912Q53.3885 186.192 53.3535 186.64Q53.3185 187.088 53.2765 187.438Q53.1785 188.138 52.9125 188.446Q52.6465 188.754 52.0305 188.81Q51.7645 188.838 51.3865 188.845Q51.0085 188.852 50.6305 188.824Q50.2665 188.81 50.0355 188.733Q49.8045 188.656 49.6715 188.488Q49.5385 188.32 49.4825 188.047Q49.4265 187.774 49.4265 187.354L49.4265 182.748L48.0125 182.832L48.0125 183.63Q47.9565 185.73 47.2985 186.976Q46.6545 188.18 44.7785 189.384L44.0785 188.39Q45.8005 187.368 46.3045 186.458Q46.8225 185.548 46.8785 183.518L46.8785 182.888L45.2265 182.944L45.0305 181.866ZM40.8725 183.994Q41.0965 183.966 41.2855 183.84Q41.4745 183.714 41.6145 183.518Q41.8945 183.126 42.2585 182.573Q42.6225 182.02 43.0705 181.264Q43.0845 181.236 43.0985 181.208Q43.1125 181.18 43.1405 181.152Q42.9445 181.18 42.7485 181.194Q42.5525 181.208 42.3425 181.222Q41.8525 181.264 41.4535 181.292Q41.0545 181.32 40.7605 181.334L40.5505 180.2Q40.7465 180.158 40.8585 180.081Q40.9705 180.004 41.0965 179.836Q41.2785 179.598 41.5025 179.199Q41.7265 178.8 42.0345 178.212Q42.6645 177.008 43.0705 175.958L44.1625 176.378Q43.7565 177.33 43.1405 178.45Q42.5385 179.584 42.0625 180.172Q42.4265 180.158 42.8885 180.116Q43.3505 180.074 43.7565 180.018Q43.9665 179.612 44.1625 179.234Q44.3585 178.856 44.5265 178.492L45.5625 178.982Q45.2825 179.584 44.9325 180.221Q44.5825 180.858 44.1765 181.572Q43.7705 182.286 43.4205 182.832Q43.0705 183.378 42.7905 183.784Q43.4625 183.672 44.0505 183.553Q44.6385 183.434 45.1565 183.294L45.1845 184.484Q44.1345 184.694 43.1125 184.869Q42.0905 185.044 41.0545 185.17L40.8725 183.994ZM40.4945 187.018Q41.4325 186.906 42.9025 186.598Q43.6585 186.43 44.2605 186.283Q44.8625 186.136 45.3105 186.01L45.4785 187.27Q45.0305 187.396 44.4285 187.536Q43.8265 187.676 43.0705 187.83Q42.3145 187.984 41.7335 188.096Q41.1525 188.208 40.7045 188.278L40.4945 187.018ZM55.1665 180.354Q56.6085 179.486 57.9665 178.212Q58.6665 177.568 59.2055 176.98Q59.7445 176.392 60.1505 175.832L61.1585 176.406Q60.9765 176.672 60.7945 176.924Q60.6125 177.176 60.4165 177.414L66.2405 177.414L66.2405 178.506Q64.3365 180.718 61.6905 182.37Q61.4525 182.524 61.2005 182.664Q60.9485 182.804 60.6965 182.944L66.2125 182.944L66.2125 188.6L57.4065 188.6L57.4065 184.414Q56.8605 184.61 56.2865 184.792Q55.7125 184.974 55.0965 185.142L54.6065 183.966Q56.4405 183.434 57.9035 182.846Q59.3665 182.258 60.5845 181.586Q62.9925 180.228 64.6025 178.534L59.4365 178.534Q59.2685 178.716 59.0935 178.884Q58.9185 179.052 58.7225 179.22Q58.8905 179.332 59.0725 179.465Q59.2545 179.598 59.4645 179.752Q59.8705 180.06 60.1785 180.312Q60.4865 180.564 60.7105 180.76L59.8705 181.642Q59.4365 181.25 58.6665 180.648Q58.4285 180.452 58.2185 180.291Q58.0085 180.13 57.8125 180.004Q57.3785 180.354 56.9165 180.683Q56.4545 181.012 55.9505 181.334L55.1665 180.354ZM58.5965 187.48L65.0365 187.48L65.0365 184.134L58.5965 184.134L58.5965 187.48ZM68.7745 177.246Q69.1805 177.19 69.6775 177.106Q70.1745 177.022 70.6925 176.917Q71.2105 176.812 71.7215 176.693Q72.2325 176.574 72.6805 176.448L73.1565 177.54Q72.8065 177.638 72.4215 177.722Q72.0365 177.806 71.6305 177.89L71.6305 179.892L73.0305 179.892L73.0305 180.998L71.6305 180.998L71.6305 181.894Q71.8685 182.09 72.1485 182.335Q72.4285 182.58 72.6875 182.818Q72.9465 183.056 73.1705 183.28Q73.3945 183.504 73.5205 183.658L72.7785 184.512Q72.4985 184.148 72.2115 183.833Q71.9245 183.518 71.6305 183.21L71.6305 189.09L70.5525 189.09L70.5525 183.518L70.3845 183.938Q70.0765 184.694 69.7825 185.31Q69.4885 185.926 69.1805 186.458L68.2985 185.912Q68.6625 185.254 69.0825 184.435Q69.5025 183.616 69.8245 182.86Q70.0345 182.384 70.2165 181.915Q70.3985 181.446 70.5525 180.998L68.7185 180.998L68.7185 179.892L70.5525 179.892L70.5525 178.086Q70.1325 178.156 69.7545 178.212Q69.3765 178.268 69.0685 178.31L68.7745 177.246ZM73.1285 180.928Q73.4365 180.438 73.7305 179.857Q74.0245 179.276 74.3045 178.604Q74.5845 177.932 74.8155 177.246Q75.0465 176.56 75.2005 175.944L76.3625 176.154Q76.2365 176.588 76.0965 177.015Q75.9565 177.442 75.8025 177.848L81.0385 177.848L81.0385 178.954Q80.7865 179.584 80.5065 180.158Q80.2265 180.732 79.8905 181.32L78.8405 180.928Q79.1065 180.48 79.3165 180.025Q79.5265 179.57 79.7645 178.982L75.3685 178.982Q75.0885 179.654 74.7805 180.27Q74.4725 180.886 74.1505 181.474L73.1285 180.928ZM74.7385 187.746Q75.0605 187.774 75.3475 187.774Q75.6345 187.774 75.8585 187.774Q76.0965 187.774 76.2365 187.753Q76.3765 187.732 76.4465 187.662Q76.5165 187.592 76.5375 187.452Q76.5585 187.312 76.5585 187.06L76.5585 180.074L77.6925 180.074L77.6925 187.522Q77.6645 188.138 77.3915 188.453Q77.1185 188.768 76.4325 188.866Q76.1105 188.908 75.7185 188.922Q75.3265 188.936 74.9625 188.922L74.7385 187.746ZM72.3025 187.298Q72.6105 186.766 72.9115 186.171Q73.2125 185.576 73.5345 184.834Q73.8565 184.092 74.1015 183.371Q74.3465 182.65 74.5425 182.006L75.6485 182.314Q75.2285 183.686 74.5985 185.17Q74.2905 185.926 73.9685 186.577Q73.6465 187.228 73.3245 187.802L72.3025 187.298ZM79.3585 182.104Q79.8765 183.014 80.5765 184.624Q80.9265 185.436 81.1715 186.129Q81.4165 186.822 81.5705 187.326L80.5765 187.732Q80.4225 187.242 80.1845 186.591Q79.9465 185.94 79.5965 185.128Q79.2465 184.316 78.9525 183.679Q78.6585 183.042 78.4065 182.58L79.3585 182.104Z">
</path>
</g>
<g >
<path     fill="#38C0FF"  d="M39.1065 92.0402Q40.3805 91.5922 41.3885 91.0882Q42.3965 90.5842 43.1945 90.0242Q42.3965 89.2822 41.8015 88.4002Q41.2065 87.5182 40.7445 86.4262L40.1705 86.4262L40.1705 85.5582L47.1425 85.5582L47.1425 86.4262Q46.3865 88.5122 44.6505 90.0802Q45.4065 90.6122 46.3515 91.0602Q47.2965 91.5082 48.4585 91.9142L48.0385 92.8802Q46.7925 92.3902 45.7845 91.8442Q44.7765 91.2982 43.9365 90.6542Q42.2565 91.9002 39.6105 92.9222L39.1065 92.0402ZM46.2745 83.0802Q46.2745 83.2762 46.2885 83.3812Q46.3025 83.4862 46.3725 83.5422Q46.4425 83.5982 46.5685 83.6192Q46.6945 83.6402 46.9325 83.6542Q47.1705 83.6682 47.5415 83.6542Q47.9125 83.6402 48.3045 83.5982L48.2205 84.5642Q47.8565 84.5922 47.3735 84.5852Q46.8905 84.5782 46.4705 84.5362Q46.1345 84.5082 45.9175 84.4382Q45.7005 84.3682 45.5815 84.2352Q45.4625 84.1022 45.4135 83.8992Q45.3645 83.6962 45.3645 83.4022L45.3645 81.3862L42.4805 81.3862L42.4805 82.3242Q42.4805 83.1082 42.0395 83.8922Q41.5985 84.6762 40.5065 85.3482L39.8625 84.6482Q40.8705 84.0182 41.2345 83.3882Q41.5845 82.7862 41.5845 81.9182L41.5845 80.5322L46.2745 80.5322L46.2745 83.0802ZM37.1745 91.6762Q37.4405 91.4382 37.5105 91.2702Q37.5805 91.1022 37.5805 90.8922L37.5805 85.2922L35.6205 85.2922L35.6205 84.4242L38.4765 84.4242L38.4765 90.6542Q39.2605 90.0802 40.2405 89.0582L40.7025 89.8982Q40.4225 90.1782 40.0445 90.5002Q39.6665 90.8222 39.2605 91.1512Q38.8545 91.4802 38.4485 91.7952Q38.0425 92.1102 37.6925 92.3482L37.1745 91.6762ZM41.7245 86.4262Q42.1025 87.3362 42.6415 88.0922Q43.1805 88.8482 43.8945 89.4922Q44.7345 88.7922 45.2805 88.0292Q45.8265 87.2662 46.1345 86.4262L41.7245 86.4262ZM37.4685 79.9022Q37.9025 80.3502 38.6025 81.1622Q38.9525 81.5682 39.2045 81.9042Q39.4565 82.2402 39.6245 82.5062L38.8405 83.1502Q38.4905 82.6042 37.8465 81.7922Q37.1885 80.9802 36.7405 80.5182L37.4685 79.9022ZM60.6805 86.6362L60.6805 92.5582L51.3565 92.5582L51.3565 86.6362L60.6805 86.6362ZM49.5785 85.6562Q51.1045 85.3762 52.4345 85.0332Q53.7645 84.6902 54.9405 84.2422Q54.3385 83.8782 53.7855 83.4442Q53.2325 83.0102 52.7285 82.5062Q51.7625 83.5142 50.5445 84.3822L49.8865 83.7242Q50.5025 83.2762 51.0415 82.8212Q51.5805 82.3662 52.0565 81.8622Q52.5325 81.3582 52.9735 80.7842Q53.4145 80.2102 53.8485 79.5242L54.7445 79.8602Q54.5765 80.1402 54.4085 80.3922Q54.2405 80.6442 54.0725 80.8822L60.7225 80.8822L60.7225 81.8062Q59.8405 82.6182 58.9585 83.2202Q58.0765 83.8222 57.0965 84.3122Q58.1045 84.7182 59.4485 85.0542Q60.7925 85.3902 62.5145 85.6282L62.2205 86.5382Q60.2885 86.2162 58.7975 85.7962Q57.3065 85.3762 56.1865 84.8862L55.9905 84.8022Q54.6745 85.3622 53.1975 85.7822Q51.7205 86.2022 49.8865 86.5242L49.5785 85.6562ZM53.3305 81.8342Q54.4785 83.0382 55.9765 83.8082Q57.8945 82.9402 59.3645 81.7222L53.4145 81.7222L53.3305 81.8342ZM52.2525 89.2122L55.5705 89.2122L55.5705 87.5042L52.2525 87.5042L52.2525 89.2122ZM56.4525 87.5042L56.4525 89.2122L59.7705 89.2122L59.7705 87.5042L56.4525 87.5042ZM52.2525 91.7042L55.5705 91.7042L55.5705 90.0242L52.2525 90.0242L52.2525 91.7042ZM59.7705 91.7042L59.7705 90.0242L56.4525 90.0242L56.4525 91.7042L59.7705 91.7042ZM64.2085 84.2562Q64.8805 83.8362 65.5805 83.2902Q66.2805 82.7442 66.9525 82.1212Q67.6245 81.4982 68.2265 80.8402Q68.8285 80.1822 69.2905 79.5382L70.0885 80.0002Q69.8785 80.3082 69.6475 80.6092Q69.4165 80.9102 69.1645 81.2042L75.0585 81.2042L75.0585 82.0442Q74.4425 82.7862 73.7635 83.4512Q73.0845 84.1162 72.3145 84.7112Q71.5445 85.3062 70.6765 85.8452Q69.8085 86.3842 68.8145 86.8602L75.0585 86.8602L75.0585 92.2782L66.5605 92.2782L66.5605 87.8262Q65.9585 88.0502 65.3215 88.2672Q64.6845 88.4842 63.9845 88.6802L63.5225 87.8262Q65.5665 87.1962 67.1205 86.5662Q68.6745 85.9362 69.8855 85.2362Q71.0965 84.5362 72.0415 83.7522Q72.9865 82.9682 73.8125 82.0442L68.3945 82.0442Q67.9465 82.5062 67.4425 82.9542Q67.7365 83.1502 68.0445 83.3602Q68.3525 83.5702 68.6395 83.7942Q68.9265 84.0182 69.1785 84.2212Q69.4305 84.4242 69.6125 84.5922L68.9825 85.2922Q68.7585 85.0682 68.4365 84.8022Q68.1145 84.5362 67.7085 84.2142Q67.1905 83.8082 66.7705 83.5282Q66.3085 83.9062 65.8185 84.2632Q65.3285 84.6202 64.8105 84.9562L64.2085 84.2562ZM67.4845 91.4662L74.1345 91.4662L74.1345 87.6722L67.4845 87.6722L67.4845 91.4662ZM77.8165 81.1622Q78.2505 81.1062 78.7895 81.0082Q79.3285 80.9102 79.8745 80.7982Q80.4205 80.6862 80.9315 80.5602Q81.4425 80.4342 81.8205 80.3082L82.1565 81.1202Q81.8205 81.2042 81.3865 81.2952Q80.9525 81.3862 80.4765 81.4842L80.4765 83.8082L82.0445 83.8082L82.0445 84.5922L80.4765 84.5922L80.4765 85.7122Q80.6585 85.8662 80.8755 86.0692Q81.0925 86.2722 81.3445 86.5102Q81.6385 86.8042 81.8625 87.0492Q82.0865 87.2942 82.2405 87.4762L81.7225 88.0642Q81.5685 87.8822 81.3515 87.6442Q81.1345 87.4062 80.8405 87.0982Q80.7285 86.9862 80.6445 86.8812Q80.5605 86.7762 80.4765 86.6922L80.4765 92.7962L79.6365 92.7962L79.6365 86.7062Q79.5665 86.9162 79.4895 87.1192Q79.4125 87.3222 79.3285 87.5182Q78.7545 88.9882 78.1105 90.0942L77.4105 89.6462Q77.7745 88.9742 78.1595 88.2042Q78.5445 87.4342 78.8665 86.6782Q79.0345 86.2862 79.2305 85.8102Q79.4265 85.3342 79.6365 84.6622L79.6365 84.5922L77.7185 84.5922L77.7185 83.8082L79.6365 83.8082L79.6365 81.6522Q79.1465 81.7362 78.7125 81.8132Q78.2785 81.8902 77.9845 81.9322L77.8165 81.1622ZM82.2125 84.6762Q82.5345 84.1722 82.8215 83.5912Q83.1085 83.0102 83.3885 82.3382Q83.6685 81.6662 83.9135 80.9942Q84.1585 80.3222 84.3265 79.6922L85.1945 79.8882Q85.0545 80.3502 84.9005 80.8052Q84.7465 81.2602 84.5785 81.7082L89.9405 81.7082L89.9405 82.5202Q89.6885 83.1642 89.4085 83.7662Q89.1285 84.3682 88.8065 84.9142L87.9945 84.5922Q88.2745 84.1302 88.5195 83.5912Q88.7645 83.0522 88.9745 82.5202L84.2565 82.5202Q83.6825 83.9202 82.9825 85.1102L82.2125 84.6762ZM83.7245 91.5502Q83.9625 91.5782 84.3475 91.5922Q84.7325 91.6062 85.0125 91.6062Q85.2505 91.6062 85.3835 91.5852Q85.5165 91.5642 85.5865 91.4942Q85.6565 91.4242 85.6775 91.2912Q85.6985 91.1582 85.6985 90.9342L85.6985 83.7942L86.5665 83.7942L86.5665 91.0742Q86.5665 91.4522 86.5105 91.7112Q86.4545 91.9702 86.3215 92.1382Q86.1885 92.3062 85.9505 92.3972Q85.7125 92.4882 85.3485 92.5302Q84.9285 92.5722 84.5435 92.5792Q84.1585 92.5862 83.9205 92.5862L83.7245 91.5502ZM81.3865 91.0322Q81.7225 90.4862 82.0165 89.9122Q82.3105 89.3382 82.6325 88.5962Q82.9545 87.8542 83.1855 87.1962Q83.4165 86.5382 83.6125 85.9082L84.4385 86.1322Q84.2425 86.8042 84.0115 87.4832Q83.7805 88.1622 83.4725 88.9182Q83.1645 89.6742 82.8355 90.2972Q82.5065 90.9202 82.1845 91.4662L81.3865 91.0322ZM88.2885 85.8662Q88.7925 86.7202 89.5205 88.3582Q90.2485 89.9822 90.5705 90.9622L89.7725 91.3262Q89.6185 90.8362 89.3595 90.2062Q89.1005 89.5762 88.7365 88.7782Q88.0225 87.1682 87.5045 86.2722L88.2885 85.8662ZM98.3282 93.5382L101.422 79.7202L102.402 79.7202L99.2942 93.5382L98.3282 93.5382ZM118.798 81.0362L118.798 92.0542L117.776 92.0542L117.776 86.7342L111.798 86.7342L111.798 92.0542L110.776 92.0542L110.776 81.0362L111.798 81.0362L111.798 85.8102L117.776 85.8102L117.776 81.0362L118.798 81.0362ZM119.904 94.5742L123.922 94.5742L123.922 95.4842L119.904 95.4842L119.904 94.5742ZM128.192 92.2082Q126.428 92.2082 125.49 90.7312Q124.552 89.2542 124.552 86.5522Q124.552 83.8362 125.49 82.3592Q126.428 80.8822 128.192 80.8822Q129.956 80.8822 130.894 82.3592Q131.832 83.8362 131.832 86.5522Q131.832 89.2542 130.894 90.7312Q129.956 92.2082 128.192 92.2082ZM128.192 91.3542Q129.508 91.3542 130.18 90.1292Q130.852 88.9042 130.852 86.5522Q130.852 84.1862 130.18 82.9682Q129.508 81.7502 128.192 81.7502Q126.876 81.7502 126.204 82.9682Q125.532 84.1862 125.532 86.5522Q125.532 88.9042 126.204 90.1292Q126.876 91.3542 128.192 91.3542ZM136.382 92.0542L135.402 92.0542L135.402 82.2402L133.106 83.5702L133.12 82.5482L135.696 81.0362L136.382 81.0362L136.382 92.0542ZM138.174 94.5742L142.192 94.5742L142.192 95.4842L138.174 95.4842L138.174 94.5742ZM146.462 92.2082Q144.698 92.2082 143.76 90.7312Q142.822 89.2542 142.822 86.5522Q142.822 83.8362 143.76 82.3592Q144.698 80.8822 146.462 80.8822Q148.226 80.8822 149.164 82.3592Q150.102 83.8362 150.102 86.5522Q150.102 89.2542 149.164 90.7312Q148.226 92.2082 146.462 92.2082ZM146.462 91.3542Q147.778 91.3542 148.45 90.1292Q149.122 88.9042 149.122 86.5522Q149.122 84.1862 148.45 82.9682Q147.778 81.7502 146.462 81.7502Q145.146 81.7502 144.474 82.9682Q143.802 84.1862 143.802 86.5522Q143.802 88.9042 144.474 90.1292Q145.146 91.3542 146.462 91.3542ZM154.652 92.0542L153.672 92.0542L153.672 82.2402L151.376 83.5702L151.39 82.5482L153.966 81.0362L154.652 81.0362L154.652 92.0542ZM163.725 93.5382L166.819 79.7202L167.799 79.7202L164.691 93.5382L163.725 93.5382ZM186.183 86.6222L186.183 87.4202Q185.553 88.3442 184.79 89.0932Q184.027 89.8422 182.977 90.4862Q183.999 90.9482 185.329 91.3122Q186.659 91.6762 188.409 91.9982L188.101 92.8942Q186.085 92.4882 184.615 92.0262Q183.145 91.5642 182.039 91.0042Q180.905 91.5642 179.428 92.0402Q177.951 92.5162 176.005 92.9362L175.655 92.0402Q177.363 91.7182 178.707 91.3402Q180.051 90.9622 181.115 90.4722Q180.163 89.8702 179.442 89.1282Q178.721 88.3862 178.049 87.4622L176.845 87.4622L176.845 86.6222L186.183 86.6222ZM182.025 79.5662Q182.221 79.9722 182.41 80.4132Q182.599 80.8542 182.753 81.3442L188.087 81.3442L188.087 82.1982L184.041 82.1982L184.041 86.0062L183.173 86.0062L183.173 82.1982L180.975 82.1982L180.975 86.0062L180.107 86.0062L180.107 82.1982L176.061 82.1982L176.061 81.3442L181.787 81.3442Q181.661 80.9662 181.5 80.5742Q181.339 80.1822 181.157 79.8602L182.025 79.5662ZM179.155 87.4622Q179.743 88.2602 180.429 88.8832Q181.115 89.5062 182.025 90.0242Q182.991 89.4922 183.712 88.8552Q184.433 88.2182 185.021 87.4622L179.155 87.4622ZM179.365 83.5702Q178.707 84.3542 177.867 85.1102Q177.027 85.8662 176.131 86.4542L175.613 85.7402Q176.495 85.1662 177.3 84.4522Q178.105 83.7382 178.735 82.9822L179.365 83.5702ZM187.947 86.1882Q187.597 85.8662 187.184 85.5092Q186.771 85.1522 186.351 84.8092Q185.931 84.4662 185.532 84.1652Q185.133 83.8642 184.825 83.6402L185.343 82.9682Q185.665 83.1922 186.071 83.4932Q186.477 83.7942 186.904 84.1302Q187.331 84.4662 187.751 84.8092Q188.171 85.1522 188.521 85.4462L187.947 86.1882ZM195.619 90.2342L195.619 89.3662L191.279 89.3662L191.279 85.7822L200.827 85.7822L200.827 89.3662L196.501 89.3662L196.501 90.2342L201.275 90.2342L201.275 90.9202L196.501 90.9202L196.501 91.7742L202.241 91.7742L202.241 92.4602L189.865 92.4602L189.865 91.7742L195.619 91.7742L195.619 90.9202L190.831 90.9202L190.831 90.2342L195.619 90.2342ZM200.827 80.2102L200.827 83.4862L191.279 83.4862L191.279 80.2102L200.827 80.2102ZM202.409 84.2982L202.409 84.9562L189.697 84.9562L189.697 84.2982L202.409 84.2982ZM199.917 82.8842L199.917 82.1282L192.203 82.1282L192.203 82.8842L199.917 82.8842ZM192.203 81.5542L199.917 81.5542L199.917 80.8402L192.203 80.8402L192.203 81.5542ZM192.189 87.2522L195.619 87.2522L195.619 86.3982L192.189 86.3982L192.189 87.2522ZM192.189 88.7222L195.619 88.7222L195.619 87.8682L192.189 87.8682L192.189 88.7222ZM199.917 88.7222L199.917 87.8682L196.501 87.8682L196.501 88.7222L199.917 88.7222ZM196.501 86.3982L196.501 87.2522L199.917 87.2522L199.917 86.3982L196.501 86.3982ZM204.229 84.2562Q204.901 83.8362 205.601 83.2902Q206.301 82.7442 206.973 82.1212Q207.645 81.4982 208.247 80.8402Q208.849 80.1822 209.311 79.5382L210.109 80.0002Q209.899 80.3082 209.668 80.6092Q209.437 80.9102 209.185 81.2042L215.079 81.2042L215.079 82.0442Q214.463 82.7862 213.784 83.4512Q213.105 84.1162 212.335 84.7112Q211.565 85.3062 210.697 85.8452Q209.829 86.3842 208.835 86.8602L215.079 86.8602L215.079 92.2782L206.581 92.2782L206.581 87.8262Q205.979 88.0502 205.342 88.2672Q204.705 88.4842 204.005 88.6802L203.543 87.8262Q205.587 87.1962 207.141 86.5662Q208.695 85.9362 209.906 85.2362Q211.117 84.5362 212.062 83.7522Q213.007 82.9682 213.833 82.0442L208.415 82.0442Q207.967 82.5062 207.463 82.9542Q207.757 83.1502 208.065 83.3602Q208.373 83.5702 208.66 83.7942Q208.947 84.0182 209.199 84.2212Q209.451 84.4242 209.633 84.5922L209.003 85.2922Q208.779 85.0682 208.457 84.8022Q208.135 84.5362 207.729 84.2142Q207.211 83.8082 206.791 83.5282Q206.329 83.9062 205.839 84.2632Q205.349 84.6202 204.831 84.9562L204.229 84.2562ZM207.505 91.4662L214.155 91.4662L214.155 87.6722L207.505 87.6722L207.505 91.4662Z">
</path>
</g>
<g >
<path     fill="#38C0FF"  d="M39.1065 155.04Q40.3805 154.592 41.3885 154.088Q42.3965 153.584 43.1945 153.024Q42.3965 152.282 41.8015 151.4Q41.2065 150.518 40.7445 149.426L40.1705 149.426L40.1705 148.558L47.1425 148.558L47.1425 149.426Q46.3865 151.512 44.6505 153.08Q45.4065 153.612 46.3515 154.06Q47.2965 154.508 48.4585 154.914L48.0385 155.88Q46.7925 155.39 45.7845 154.844Q44.7765 154.298 43.9365 153.654Q42.2565 154.9 39.6105 155.922L39.1065 155.04ZM46.2745 146.08Q46.2745 146.276 46.2885 146.381Q46.3025 146.486 46.3725 146.542Q46.4425 146.598 46.5685 146.619Q46.6945 146.64 46.9325 146.654Q47.1705 146.668 47.5415 146.654Q47.9125 146.64 48.3045 146.598L48.2205 147.564Q47.8565 147.592 47.3735 147.585Q46.8905 147.578 46.4705 147.536Q46.1345 147.508 45.9175 147.438Q45.7005 147.368 45.5815 147.235Q45.4625 147.102 45.4135 146.899Q45.3645 146.696 45.3645 146.402L45.3645 144.386L42.4805 144.386L42.4805 145.324Q42.4805 146.108 42.0395 146.892Q41.5985 147.676 40.5065 148.348L39.8625 147.648Q40.8705 147.018 41.2345 146.388Q41.5845 145.786 41.5845 144.918L41.5845 143.532L46.2745 143.532L46.2745 146.08ZM37.1745 154.676Q37.4405 154.438 37.5105 154.27Q37.5805 154.102 37.5805 153.892L37.5805 148.292L35.6205 148.292L35.6205 147.424L38.4765 147.424L38.4765 153.654Q39.2605 153.08 40.2405 152.058L40.7025 152.898Q40.4225 153.178 40.0445 153.5Q39.6665 153.822 39.2605 154.151Q38.8545 154.48 38.4485 154.795Q38.0425 155.11 37.6925 155.348L37.1745 154.676ZM41.7245 149.426Q42.1025 150.336 42.6415 151.092Q43.1805 151.848 43.8945 152.492Q44.7345 151.792 45.2805 151.029Q45.8265 150.266 46.1345 149.426L41.7245 149.426ZM37.4685 142.902Q37.9025 143.35 38.6025 144.162Q38.9525 144.568 39.2045 144.904Q39.4565 145.24 39.6245 145.506L38.8405 146.15Q38.4905 145.604 37.8465 144.792Q37.1885 143.98 36.7405 143.518L37.4685 142.902ZM60.6805 149.636L60.6805 155.558L51.3565 155.558L51.3565 149.636L60.6805 149.636ZM49.5785 148.656Q51.1045 148.376 52.4345 148.033Q53.7645 147.69 54.9405 147.242Q54.3385 146.878 53.7855 146.444Q53.2325 146.01 52.7285 145.506Q51.7625 146.514 50.5445 147.382L49.8865 146.724Q50.5025 146.276 51.0415 145.821Q51.5805 145.366 52.0565 144.862Q52.5325 144.358 52.9735 143.784Q53.4145 143.21 53.8485 142.524L54.7445 142.86Q54.5765 143.14 54.4085 143.392Q54.2405 143.644 54.0725 143.882L60.7225 143.882L60.7225 144.806Q59.8405 145.618 58.9585 146.22Q58.0765 146.822 57.0965 147.312Q58.1045 147.718 59.4485 148.054Q60.7925 148.39 62.5145 148.628L62.2205 149.538Q60.2885 149.216 58.7975 148.796Q57.3065 148.376 56.1865 147.886L55.9905 147.802Q54.6745 148.362 53.1975 148.782Q51.7205 149.202 49.8865 149.524L49.5785 148.656ZM53.3305 144.834Q54.4785 146.038 55.9765 146.808Q57.8945 145.94 59.3645 144.722L53.4145 144.722L53.3305 144.834ZM52.2525 152.212L55.5705 152.212L55.5705 150.504L52.2525 150.504L52.2525 152.212ZM56.4525 150.504L56.4525 152.212L59.7705 152.212L59.7705 150.504L56.4525 150.504ZM52.2525 154.704L55.5705 154.704L55.5705 153.024L52.2525 153.024L52.2525 154.704ZM59.7705 154.704L59.7705 153.024L56.4525 153.024L56.4525 154.704L59.7705 154.704ZM64.2085 147.256Q64.8805 146.836 65.5805 146.29Q66.2805 145.744 66.9525 145.121Q67.6245 144.498 68.2265 143.84Q68.8285 143.182 69.2905 142.538L70.0885 143Q69.8785 143.308 69.6475 143.609Q69.4165 143.91 69.1645 144.204L75.0585 144.204L75.0585 145.044Q74.4425 145.786 73.7635 146.451Q73.0845 147.116 72.3145 147.711Q71.5445 148.306 70.6765 148.845Q69.8085 149.384 68.8145 149.86L75.0585 149.86L75.0585 155.278L66.5605 155.278L66.5605 150.826Q65.9585 151.05 65.3215 151.267Q64.6845 151.484 63.9845 151.68L63.5225 150.826Q65.5665 150.196 67.1205 149.566Q68.6745 148.936 69.8855 148.236Q71.0965 147.536 72.0415 146.752Q72.9865 145.968 73.8125 145.044L68.3945 145.044Q67.9465 145.506 67.4425 145.954Q67.7365 146.15 68.0445 146.36Q68.3525 146.57 68.6395 146.794Q68.9265 147.018 69.1785 147.221Q69.4305 147.424 69.6125 147.592L68.9825 148.292Q68.7585 148.068 68.4365 147.802Q68.1145 147.536 67.7085 147.214Q67.1905 146.808 66.7705 146.528Q66.3085 146.906 65.8185 147.263Q65.3285 147.62 64.8105 147.956L64.2085 147.256ZM67.4845 154.466L74.1345 154.466L74.1345 150.672L67.4845 150.672L67.4845 154.466ZM77.8165 144.162Q78.2505 144.106 78.7895 144.008Q79.3285 143.91 79.8745 143.798Q80.4205 143.686 80.9315 143.56Q81.4425 143.434 81.8205 143.308L82.1565 144.12Q81.8205 144.204 81.3865 144.295Q80.9525 144.386 80.4765 144.484L80.4765 146.808L82.0445 146.808L82.0445 147.592L80.4765 147.592L80.4765 148.712Q80.6585 148.866 80.8755 149.069Q81.0925 149.272 81.3445 149.51Q81.6385 149.804 81.8625 150.049Q82.0865 150.294 82.2405 150.476L81.7225 151.064Q81.5685 150.882 81.3515 150.644Q81.1345 150.406 80.8405 150.098Q80.7285 149.986 80.6445 149.881Q80.5605 149.776 80.4765 149.692L80.4765 155.796L79.6365 155.796L79.6365 149.706Q79.5665 149.916 79.4895 150.119Q79.4125 150.322 79.3285 150.518Q78.7545 151.988 78.1105 153.094L77.4105 152.646Q77.7745 151.974 78.1595 151.204Q78.5445 150.434 78.8665 149.678Q79.0345 149.286 79.2305 148.81Q79.4265 148.334 79.6365 147.662L79.6365 147.592L77.7185 147.592L77.7185 146.808L79.6365 146.808L79.6365 144.652Q79.1465 144.736 78.7125 144.813Q78.2785 144.89 77.9845 144.932L77.8165 144.162ZM82.2125 147.676Q82.5345 147.172 82.8215 146.591Q83.1085 146.01 83.3885 145.338Q83.6685 144.666 83.9135 143.994Q84.1585 143.322 84.3265 142.692L85.1945 142.888Q85.0545 143.35 84.9005 143.805Q84.7465 144.26 84.5785 144.708L89.9405 144.708L89.9405 145.52Q89.6885 146.164 89.4085 146.766Q89.1285 147.368 88.8065 147.914L87.9945 147.592Q88.2745 147.13 88.5195 146.591Q88.7645 146.052 88.9745 145.52L84.2565 145.52Q83.6825 146.92 82.9825 148.11L82.2125 147.676ZM83.7245 154.55Q83.9625 154.578 84.3475 154.592Q84.7325 154.606 85.0125 154.606Q85.2505 154.606 85.3835 154.585Q85.5165 154.564 85.5865 154.494Q85.6565 154.424 85.6775 154.291Q85.6985 154.158 85.6985 153.934L85.6985 146.794L86.5665 146.794L86.5665 154.074Q86.5665 154.452 86.5105 154.711Q86.4545 154.97 86.3215 155.138Q86.1885 155.306 85.9505 155.397Q85.7125 155.488 85.3485 155.53Q84.9285 155.572 84.5435 155.579Q84.1585 155.586 83.9205 155.586L83.7245 154.55ZM81.3865 154.032Q81.7225 153.486 82.0165 152.912Q82.3105 152.338 82.6325 151.596Q82.9545 150.854 83.1855 150.196Q83.4165 149.538 83.6125 148.908L84.4385 149.132Q84.2425 149.804 84.0115 150.483Q83.7805 151.162 83.4725 151.918Q83.1645 152.674 82.8355 153.297Q82.5065 153.92 82.1845 154.466L81.3865 154.032ZM88.2885 148.866Q88.7925 149.72 89.5205 151.358Q90.2485 152.982 90.5705 153.962L89.7725 154.326Q89.6185 153.836 89.3595 153.206Q89.1005 152.576 88.7365 151.778Q88.0225 150.168 87.5045 149.272L88.2885 148.866ZM98.3282 156.538L101.422 142.72L102.402 142.72L99.2942 156.538L98.3282 156.538ZM118.798 144.036L118.798 155.054L117.776 155.054L117.776 149.734L111.798 149.734L111.798 155.054L110.776 155.054L110.776 144.036L111.798 144.036L111.798 148.81L117.776 148.81L117.776 144.036L118.798 144.036ZM119.904 157.574L123.922 157.574L123.922 158.484L119.904 158.484L119.904 157.574ZM128.192 155.208Q126.428 155.208 125.49 153.731Q124.552 152.254 124.552 149.552Q124.552 146.836 125.49 145.359Q126.428 143.882 128.192 143.882Q129.956 143.882 130.894 145.359Q131.832 146.836 131.832 149.552Q131.832 152.254 130.894 153.731Q129.956 155.208 128.192 155.208ZM128.192 154.354Q129.508 154.354 130.18 153.129Q130.852 151.904 130.852 149.552Q130.852 147.186 130.18 145.968Q129.508 144.75 128.192 144.75Q126.876 144.75 126.204 145.968Q125.532 147.186 125.532 149.552Q125.532 151.904 126.204 153.129Q126.876 154.354 128.192 154.354ZM136.382 155.054L135.402 155.054L135.402 145.24L133.106 146.57L133.12 145.548L135.696 144.036L136.382 144.036L136.382 155.054ZM138.174 157.574L142.192 157.574L142.192 158.484L138.174 158.484L138.174 157.574ZM146.462 155.208Q144.698 155.208 143.76 153.731Q142.822 152.254 142.822 149.552Q142.822 146.836 143.76 145.359Q144.698 143.882 146.462 143.882Q148.226 143.882 149.164 145.359Q150.102 146.836 150.102 149.552Q150.102 152.254 149.164 153.731Q148.226 155.208 146.462 155.208ZM146.462 154.354Q147.778 154.354 148.45 153.129Q149.122 151.904 149.122 149.552Q149.122 147.186 148.45 145.968Q147.778 144.75 146.462 144.75Q145.146 144.75 144.474 145.968Q143.802 147.186 143.802 149.552Q143.802 151.904 144.474 153.129Q145.146 154.354 146.462 154.354ZM154.652 155.054L153.672 155.054L153.672 145.24L151.376 146.57L151.39 145.548L153.966 144.036L154.652 144.036L154.652 155.054ZM163.725 156.538L166.819 142.72L167.799 142.72L164.691 156.538L163.725 156.538ZM186.183 149.622L186.183 150.42Q185.553 151.344 184.79 152.093Q184.027 152.842 182.977 153.486Q183.999 153.948 185.329 154.312Q186.659 154.676 188.409 154.998L188.101 155.894Q186.085 155.488 184.615 155.026Q183.145 154.564 182.039 154.004Q180.905 154.564 179.428 155.04Q177.951 155.516 176.005 155.936L175.655 155.04Q177.363 154.718 178.707 154.34Q180.051 153.962 181.115 153.472Q180.163 152.87 179.442 152.128Q178.721 151.386 178.049 150.462L176.845 150.462L176.845 149.622L186.183 149.622ZM182.025 142.566Q182.221 142.972 182.41 143.413Q182.599 143.854 182.753 144.344L188.087 144.344L188.087 145.198L184.041 145.198L184.041 149.006L183.173 149.006L183.173 145.198L180.975 145.198L180.975 149.006L180.107 149.006L180.107 145.198L176.061 145.198L176.061 144.344L181.787 144.344Q181.661 143.966 181.5 143.574Q181.339 143.182 181.157 142.86L182.025 142.566ZM179.155 150.462Q179.743 151.26 180.429 151.883Q181.115 152.506 182.025 153.024Q182.991 152.492 183.712 151.855Q184.433 151.218 185.021 150.462L179.155 150.462ZM179.365 146.57Q178.707 147.354 177.867 148.11Q177.027 148.866 176.131 149.454L175.613 148.74Q176.495 148.166 177.3 147.452Q178.105 146.738 178.735 145.982L179.365 146.57ZM187.947 149.188Q187.597 148.866 187.184 148.509Q186.771 148.152 186.351 147.809Q185.931 147.466 185.532 147.165Q185.133 146.864 184.825 146.64L185.343 145.968Q185.665 146.192 186.071 146.493Q186.477 146.794 186.904 147.13Q187.331 147.466 187.751 147.809Q188.171 148.152 188.521 148.446L187.947 149.188ZM195.619 153.234L195.619 152.366L191.279 152.366L191.279 148.782L200.827 148.782L200.827 152.366L196.501 152.366L196.501 153.234L201.275 153.234L201.275 153.92L196.501 153.92L196.501 154.774L202.241 154.774L202.241 155.46L189.865 155.46L189.865 154.774L195.619 154.774L195.619 153.92L190.831 153.92L190.831 153.234L195.619 153.234ZM200.827 143.21L200.827 146.486L191.279 146.486L191.279 143.21L200.827 143.21ZM202.409 147.298L202.409 147.956L189.697 147.956L189.697 147.298L202.409 147.298ZM199.917 145.884L199.917 145.128L192.203 145.128L192.203 145.884L199.917 145.884ZM192.203 144.554L199.917 144.554L199.917 143.84L192.203 143.84L192.203 144.554ZM192.189 150.252L195.619 150.252L195.619 149.398L192.189 149.398L192.189 150.252ZM192.189 151.722L195.619 151.722L195.619 150.868L192.189 150.868L192.189 151.722ZM199.917 151.722L199.917 150.868L196.501 150.868L196.501 151.722L199.917 151.722ZM196.501 149.398L196.501 150.252L199.917 150.252L199.917 149.398L196.501 149.398ZM204.229 147.256Q204.901 146.836 205.601 146.29Q206.301 145.744 206.973 145.121Q207.645 144.498 208.247 143.84Q208.849 143.182 209.311 142.538L210.109 143Q209.899 143.308 209.668 143.609Q209.437 143.91 209.185 144.204L215.079 144.204L215.079 145.044Q214.463 145.786 213.784 146.451Q213.105 147.116 212.335 147.711Q211.565 148.306 210.697 148.845Q209.829 149.384 208.835 149.86L215.079 149.86L215.079 155.278L206.581 155.278L206.581 150.826Q205.979 151.05 205.342 151.267Q204.705 151.484 204.005 151.68L203.543 150.826Q205.587 150.196 207.141 149.566Q208.695 148.936 209.906 148.236Q211.117 147.536 212.062 146.752Q213.007 145.968 213.833 145.044L208.415 145.044Q207.967 145.506 207.463 145.954Q207.757 146.15 208.065 146.36Q208.373 146.57 208.66 146.794Q208.947 147.018 209.199 147.221Q209.451 147.424 209.633 147.592L209.003 148.292Q208.779 148.068 208.457 147.802Q208.135 147.536 207.729 147.214Q207.211 146.808 206.791 146.528Q206.329 146.906 205.839 147.263Q205.349 147.62 204.831 147.956L204.229 147.256ZM207.505 154.466L214.155 154.466L214.155 150.672L207.505 150.672L207.505 154.466Z">
</path>
</g>
<g >
<path     fill="#38C0FF"  d="M39.1065 215.04Q40.3805 214.592 41.3885 214.088Q42.3965 213.584 43.1945 213.024Q42.3965 212.282 41.8015 211.4Q41.2065 210.518 40.7445 209.426L40.1705 209.426L40.1705 208.558L47.1425 208.558L47.1425 209.426Q46.3865 211.512 44.6505 213.08Q45.4065 213.612 46.3515 214.06Q47.2965 214.508 48.4585 214.914L48.0385 215.88Q46.7925 215.39 45.7845 214.844Q44.7765 214.298 43.9365 213.654Q42.2565 214.9 39.6105 215.922L39.1065 215.04ZM46.2745 206.08Q46.2745 206.276 46.2885 206.381Q46.3025 206.486 46.3725 206.542Q46.4425 206.598 46.5685 206.619Q46.6945 206.64 46.9325 206.654Q47.1705 206.668 47.5415 206.654Q47.9125 206.64 48.3045 206.598L48.2205 207.564Q47.8565 207.592 47.3735 207.585Q46.8905 207.578 46.4705 207.536Q46.1345 207.508 45.9175 207.438Q45.7005 207.368 45.5815 207.235Q45.4625 207.102 45.4135 206.899Q45.3645 206.696 45.3645 206.402L45.3645 204.386L42.4805 204.386L42.4805 205.324Q42.4805 206.108 42.0395 206.892Q41.5985 207.676 40.5065 208.348L39.8625 207.648Q40.8705 207.018 41.2345 206.388Q41.5845 205.786 41.5845 204.918L41.5845 203.532L46.2745 203.532L46.2745 206.08ZM37.1745 214.676Q37.4405 214.438 37.5105 214.27Q37.5805 214.102 37.5805 213.892L37.5805 208.292L35.6205 208.292L35.6205 207.424L38.4765 207.424L38.4765 213.654Q39.2605 213.08 40.2405 212.058L40.7025 212.898Q40.4225 213.178 40.0445 213.5Q39.6665 213.822 39.2605 214.151Q38.8545 214.48 38.4485 214.795Q38.0425 215.11 37.6925 215.348L37.1745 214.676ZM41.7245 209.426Q42.1025 210.336 42.6415 211.092Q43.1805 211.848 43.8945 212.492Q44.7345 211.792 45.2805 211.029Q45.8265 210.266 46.1345 209.426L41.7245 209.426ZM37.4685 202.902Q37.9025 203.35 38.6025 204.162Q38.9525 204.568 39.2045 204.904Q39.4565 205.24 39.6245 205.506L38.8405 206.15Q38.4905 205.604 37.8465 204.792Q37.1885 203.98 36.7405 203.518L37.4685 202.902ZM60.6805 209.636L60.6805 215.558L51.3565 215.558L51.3565 209.636L60.6805 209.636ZM49.5785 208.656Q51.1045 208.376 52.4345 208.033Q53.7645 207.69 54.9405 207.242Q54.3385 206.878 53.7855 206.444Q53.2325 206.01 52.7285 205.506Q51.7625 206.514 50.5445 207.382L49.8865 206.724Q50.5025 206.276 51.0415 205.821Q51.5805 205.366 52.0565 204.862Q52.5325 204.358 52.9735 203.784Q53.4145 203.21 53.8485 202.524L54.7445 202.86Q54.5765 203.14 54.4085 203.392Q54.2405 203.644 54.0725 203.882L60.7225 203.882L60.7225 204.806Q59.8405 205.618 58.9585 206.22Q58.0765 206.822 57.0965 207.312Q58.1045 207.718 59.4485 208.054Q60.7925 208.39 62.5145 208.628L62.2205 209.538Q60.2885 209.216 58.7975 208.796Q57.3065 208.376 56.1865 207.886L55.9905 207.802Q54.6745 208.362 53.1975 208.782Q51.7205 209.202 49.8865 209.524L49.5785 208.656ZM53.3305 204.834Q54.4785 206.038 55.9765 206.808Q57.8945 205.94 59.3645 204.722L53.4145 204.722L53.3305 204.834ZM52.2525 212.212L55.5705 212.212L55.5705 210.504L52.2525 210.504L52.2525 212.212ZM56.4525 210.504L56.4525 212.212L59.7705 212.212L59.7705 210.504L56.4525 210.504ZM52.2525 214.704L55.5705 214.704L55.5705 213.024L52.2525 213.024L52.2525 214.704ZM59.7705 214.704L59.7705 213.024L56.4525 213.024L56.4525 214.704L59.7705 214.704ZM64.2085 207.256Q64.8805 206.836 65.5805 206.29Q66.2805 205.744 66.9525 205.121Q67.6245 204.498 68.2265 203.84Q68.8285 203.182 69.2905 202.538L70.0885 203Q69.8785 203.308 69.6475 203.609Q69.4165 203.91 69.1645 204.204L75.0585 204.204L75.0585 205.044Q74.4425 205.786 73.7635 206.451Q73.0845 207.116 72.3145 207.711Q71.5445 208.306 70.6765 208.845Q69.8085 209.384 68.8145 209.86L75.0585 209.86L75.0585 215.278L66.5605 215.278L66.5605 210.826Q65.9585 211.05 65.3215 211.267Q64.6845 211.484 63.9845 211.68L63.5225 210.826Q65.5665 210.196 67.1205 209.566Q68.6745 208.936 69.8855 208.236Q71.0965 207.536 72.0415 206.752Q72.9865 205.968 73.8125 205.044L68.3945 205.044Q67.9465 205.506 67.4425 205.954Q67.7365 206.15 68.0445 206.36Q68.3525 206.57 68.6395 206.794Q68.9265 207.018 69.1785 207.221Q69.4305 207.424 69.6125 207.592L68.9825 208.292Q68.7585 208.068 68.4365 207.802Q68.1145 207.536 67.7085 207.214Q67.1905 206.808 66.7705 206.528Q66.3085 206.906 65.8185 207.263Q65.3285 207.62 64.8105 207.956L64.2085 207.256ZM67.4845 214.466L74.1345 214.466L74.1345 210.672L67.4845 210.672L67.4845 214.466ZM77.8165 204.162Q78.2505 204.106 78.7895 204.008Q79.3285 203.91 79.8745 203.798Q80.4205 203.686 80.9315 203.56Q81.4425 203.434 81.8205 203.308L82.1565 204.12Q81.8205 204.204 81.3865 204.295Q80.9525 204.386 80.4765 204.484L80.4765 206.808L82.0445 206.808L82.0445 207.592L80.4765 207.592L80.4765 208.712Q80.6585 208.866 80.8755 209.069Q81.0925 209.272 81.3445 209.51Q81.6385 209.804 81.8625 210.049Q82.0865 210.294 82.2405 210.476L81.7225 211.064Q81.5685 210.882 81.3515 210.644Q81.1345 210.406 80.8405 210.098Q80.7285 209.986 80.6445 209.881Q80.5605 209.776 80.4765 209.692L80.4765 215.796L79.6365 215.796L79.6365 209.706Q79.5665 209.916 79.4895 210.119Q79.4125 210.322 79.3285 210.518Q78.7545 211.988 78.1105 213.094L77.4105 212.646Q77.7745 211.974 78.1595 211.204Q78.5445 210.434 78.8665 209.678Q79.0345 209.286 79.2305 208.81Q79.4265 208.334 79.6365 207.662L79.6365 207.592L77.7185 207.592L77.7185 206.808L79.6365 206.808L79.6365 204.652Q79.1465 204.736 78.7125 204.813Q78.2785 204.89 77.9845 204.932L77.8165 204.162ZM82.2125 207.676Q82.5345 207.172 82.8215 206.591Q83.1085 206.01 83.3885 205.338Q83.6685 204.666 83.9135 203.994Q84.1585 203.322 84.3265 202.692L85.1945 202.888Q85.0545 203.35 84.9005 203.805Q84.7465 204.26 84.5785 204.708L89.9405 204.708L89.9405 205.52Q89.6885 206.164 89.4085 206.766Q89.1285 207.368 88.8065 207.914L87.9945 207.592Q88.2745 207.13 88.5195 206.591Q88.7645 206.052 88.9745 205.52L84.2565 205.52Q83.6825 206.92 82.9825 208.11L82.2125 207.676ZM83.7245 214.55Q83.9625 214.578 84.3475 214.592Q84.7325 214.606 85.0125 214.606Q85.2505 214.606 85.3835 214.585Q85.5165 214.564 85.5865 214.494Q85.6565 214.424 85.6775 214.291Q85.6985 214.158 85.6985 213.934L85.6985 206.794L86.5665 206.794L86.5665 214.074Q86.5665 214.452 86.5105 214.711Q86.4545 214.97 86.3215 215.138Q86.1885 215.306 85.9505 215.397Q85.7125 215.488 85.3485 215.53Q84.9285 215.572 84.5435 215.579Q84.1585 215.586 83.9205 215.586L83.7245 214.55ZM81.3865 214.032Q81.7225 213.486 82.0165 212.912Q82.3105 212.338 82.6325 211.596Q82.9545 210.854 83.1855 210.196Q83.4165 209.538 83.6125 208.908L84.4385 209.132Q84.2425 209.804 84.0115 210.483Q83.7805 211.162 83.4725 211.918Q83.1645 212.674 82.8355 213.297Q82.5065 213.92 82.1845 214.466L81.3865 214.032ZM88.2885 208.866Q88.7925 209.72 89.5205 211.358Q90.2485 212.982 90.5705 213.962L89.7725 214.326Q89.6185 213.836 89.3595 213.206Q89.1005 212.576 88.7365 211.778Q88.0225 210.168 87.5045 209.272L88.2885 208.866ZM98.3282 216.538L101.422 202.72L102.402 202.72L99.2942 216.538L98.3282 216.538ZM118.798 204.036L118.798 215.054L117.776 215.054L117.776 209.734L111.798 209.734L111.798 215.054L110.776 215.054L110.776 204.036L111.798 204.036L111.798 208.81L117.776 208.81L117.776 204.036L118.798 204.036ZM119.904 217.574L123.922 217.574L123.922 218.484L119.904 218.484L119.904 217.574ZM128.192 215.208Q126.428 215.208 125.49 213.731Q124.552 212.254 124.552 209.552Q124.552 206.836 125.49 205.359Q126.428 203.882 128.192 203.882Q129.956 203.882 130.894 205.359Q131.832 206.836 131.832 209.552Q131.832 212.254 130.894 213.731Q129.956 215.208 128.192 215.208ZM128.192 214.354Q129.508 214.354 130.18 213.129Q130.852 211.904 130.852 209.552Q130.852 207.186 130.18 205.968Q129.508 204.75 128.192 204.75Q126.876 204.75 126.204 205.968Q125.532 207.186 125.532 209.552Q125.532 211.904 126.204 213.129Q126.876 214.354 128.192 214.354ZM136.382 215.054L135.402 215.054L135.402 205.24L133.106 206.57L133.12 205.548L135.696 204.036L136.382 204.036L136.382 215.054ZM138.174 217.574L142.192 217.574L142.192 218.484L138.174 218.484L138.174 217.574ZM146.462 215.208Q144.698 215.208 143.76 213.731Q142.822 212.254 142.822 209.552Q142.822 206.836 143.76 205.359Q144.698 203.882 146.462 203.882Q148.226 203.882 149.164 205.359Q150.102 206.836 150.102 209.552Q150.102 212.254 149.164 213.731Q148.226 215.208 146.462 215.208ZM146.462 214.354Q147.778 214.354 148.45 213.129Q149.122 211.904 149.122 209.552Q149.122 207.186 148.45 205.968Q147.778 204.75 146.462 204.75Q145.146 204.75 144.474 205.968Q143.802 207.186 143.802 209.552Q143.802 211.904 144.474 213.129Q145.146 214.354 146.462 214.354ZM154.652 215.054L153.672 215.054L153.672 205.24L151.376 206.57L151.39 205.548L153.966 204.036L154.652 204.036L154.652 215.054ZM163.725 216.538L166.819 202.72L167.799 202.72L164.691 216.538L163.725 216.538ZM186.183 209.622L186.183 210.42Q185.553 211.344 184.79 212.093Q184.027 212.842 182.977 213.486Q183.999 213.948 185.329 214.312Q186.659 214.676 188.409 214.998L188.101 215.894Q186.085 215.488 184.615 215.026Q183.145 214.564 182.039 214.004Q180.905 214.564 179.428 215.04Q177.951 215.516 176.005 215.936L175.655 215.04Q177.363 214.718 178.707 214.34Q180.051 213.962 181.115 213.472Q180.163 212.87 179.442 212.128Q178.721 211.386 178.049 210.462L176.845 210.462L176.845 209.622L186.183 209.622ZM182.025 202.566Q182.221 202.972 182.41 203.413Q182.599 203.854 182.753 204.344L188.087 204.344L188.087 205.198L184.041 205.198L184.041 209.006L183.173 209.006L183.173 205.198L180.975 205.198L180.975 209.006L180.107 209.006L180.107 205.198L176.061 205.198L176.061 204.344L181.787 204.344Q181.661 203.966 181.5 203.574Q181.339 203.182 181.157 202.86L182.025 202.566ZM179.155 210.462Q179.743 211.26 180.429 211.883Q181.115 212.506 182.025 213.024Q182.991 212.492 183.712 211.855Q184.433 211.218 185.021 210.462L179.155 210.462ZM179.365 206.57Q178.707 207.354 177.867 208.11Q177.027 208.866 176.131 209.454L175.613 208.74Q176.495 208.166 177.3 207.452Q178.105 206.738 178.735 205.982L179.365 206.57ZM187.947 209.188Q187.597 208.866 187.184 208.509Q186.771 208.152 186.351 207.809Q185.931 207.466 185.532 207.165Q185.133 206.864 184.825 206.64L185.343 205.968Q185.665 206.192 186.071 206.493Q186.477 206.794 186.904 207.13Q187.331 207.466 187.751 207.809Q188.171 208.152 188.521 208.446L187.947 209.188ZM195.619 213.234L195.619 212.366L191.279 212.366L191.279 208.782L200.827 208.782L200.827 212.366L196.501 212.366L196.501 213.234L201.275 213.234L201.275 213.92L196.501 213.92L196.501 214.774L202.241 214.774L202.241 215.46L189.865 215.46L189.865 214.774L195.619 214.774L195.619 213.92L190.831 213.92L190.831 213.234L195.619 213.234ZM200.827 203.21L200.827 206.486L191.279 206.486L191.279 203.21L200.827 203.21ZM202.409 207.298L202.409 207.956L189.697 207.956L189.697 207.298L202.409 207.298ZM199.917 205.884L199.917 205.128L192.203 205.128L192.203 205.884L199.917 205.884ZM192.203 204.554L199.917 204.554L199.917 203.84L192.203 203.84L192.203 204.554ZM192.189 210.252L195.619 210.252L195.619 209.398L192.189 209.398L192.189 210.252ZM192.189 211.722L195.619 211.722L195.619 210.868L192.189 210.868L192.189 211.722ZM199.917 211.722L199.917 210.868L196.501 210.868L196.501 211.722L199.917 211.722ZM196.501 209.398L196.501 210.252L199.917 210.252L199.917 209.398L196.501 209.398ZM204.229 207.256Q204.901 206.836 205.601 206.29Q206.301 205.744 206.973 205.121Q207.645 204.498 208.247 203.84Q208.849 203.182 209.311 202.538L210.109 203Q209.899 203.308 209.668 203.609Q209.437 203.91 209.185 204.204L215.079 204.204L215.079 205.044Q214.463 205.786 213.784 206.451Q213.105 207.116 212.335 207.711Q211.565 208.306 210.697 208.845Q209.829 209.384 208.835 209.86L215.079 209.86L215.079 215.278L206.581 215.278L206.581 210.826Q205.979 211.05 205.342 211.267Q204.705 211.484 204.005 211.68L203.543 210.826Q205.587 210.196 207.141 209.566Q208.695 208.936 209.906 208.236Q211.117 207.536 212.062 206.752Q213.007 205.968 213.833 205.044L208.415 205.044Q207.967 205.506 207.463 205.954Q207.757 206.15 208.065 206.36Q208.373 206.57 208.66 206.794Q208.947 207.018 209.199 207.221Q209.451 207.424 209.633 207.592L209.003 208.292Q208.779 208.068 208.457 207.802Q208.135 207.536 207.729 207.214Q207.211 206.808 206.791 206.528Q206.329 206.906 205.839 207.263Q205.349 207.62 204.831 207.956L204.229 207.256ZM207.505 214.466L214.155 214.466L214.155 210.672L207.505 210.672L207.505 214.466Z">
</path>
</g>
<defs>
<radialGradient id="linear_fill_68_2594" cx="0" cy="0" r="1" gradientTransform="translate(140.04708099365234 134.55990600585938) rotate(-180) scale(201.91162512142344, 134.5582275390625)" gradientUnits="userSpaceOnUse">
<stop offset="0" stop-color="#004E7A" stop-opacity="0.58" />
<stop offset="1" stop-color="#00A3FF" stop-opacity="0" />
</radialGradient>
<linearGradient id="linear_fill_68_2599" x1="0.04648590087890625" y1="32.671173095703125" x2="277.24649810791016" y2="32.671173095703125" gradientUnits="userSpaceOnUse">
<stop offset="0" stop-color="#00A1FC" stop-opacity="0.57" />
<stop offset="1" stop-color="#00A1FC" stop-opacity="0" />
</linearGradient>
</defs>
</svg>
