<svg xmlns="http://www.w3.org/2000/svg" xmlns:xlink="http://www.w3.org/1999/xlink" width="96" height="28" viewBox="0 0 96 28" fill="none">
<rect  x="0" y="0" width="96" height="28" rx="2"    fill="#000000" fill-opacity="0.5">
</rect>
<path fill-rule="evenodd"  fill="rgba(15, 100, 126, 1)"  d="M94 0L2 0C0.895431 0 0 0.895431 0 2L0 26C0 27.1046 0.895431 28 2 28L94 28C95.1046 28 96 27.1046 96 26L96 2C96 0.895431 95.1046 0 94 0ZM1 2C1 1.44772 1.44772 1 2 1L94 1C94.5523 1 95 1.44772 95 2L95 26C95 26.5523 94.5523 27 94 27L2 27C1.44772 27 1 26.5523 1 26L1 2Z">
</path>
<path d="M5 24L9 22.0952L9 5.90476L5 4L5 24Z"   fill="#0F647E" >
</path>
<path d="M91 24L87 22.0952L87 5.90476L91 4L91 24Z"   fill="#0F647E" >
</path>
</svg>
