<svg xmlns="http://www.w3.org/2000/svg" xmlns:xlink="http://www.w3.org/1999/xlink" width="42" height="110.9990234375" viewBox="0 0 42 110.9990234375" fill="none">
<path   fill-rule="evenodd"  fill="#03111C" fill-opacity="0.75" d="M0.0609779 12.9647L0.0610161 33.8936L3.52495 37.3506L3.52497 62.7848L0.0610352 66.2419L0.0610657 98.0372L13.0465 110.999L42 110.999L41.9999 5.24521e-06L13.0464 0L0.0609779 12.9647Z">
</path>
<path fill-rule="evenodd"  fill="rgba(94, 255, 255, 1)"  d="M3.52497 62.7848L0.0610352 66.2419L0.0610657 98.0372L13.0465 110.999L41 110.999L42 110.999L42 109.999L41.9999 5.24521e-06L13.0464 0L0.0609779 12.9647L0.0610161 33.8936L3.52495 37.3506L3.52497 62.7848ZM1.06102 33.4788L4.52495 36.9358L4.52497 63.1996L1.06104 66.6567L1.06107 97.6225L13.4602 109.999L41 109.999L40.9999 1L13.4602 1L1.06098 13.3794L1.06102 33.4788Z">
</path>
<path d="M0 0L8.65633 0L0 8.68181L0 0L0 0Z" fill-rule="evenodd"  fill="#5EFFFF" >
</path>
<path d="M0.494629 110.681L9.15096 110.681L0.494629 101.999L0.494629 110.681L0.494629 110.681Z" fill-rule="evenodd"  fill="#5EFFFF" >
</path>
<path d="M1.79132 38.7885L1.79132 61.6229L0.0600586 63.05L0.0600586 37.0046L1.79132 38.7885L1.79132 38.7885Z" fill-rule="evenodd"  fill="#5EFFFF" >
</path>
<g filter="url(#filter_80_243)">
<path d="M17.5757 103.6L31.6033 103.6L32.48 104.6L16.4798 104.6L17.5757 103.6L17.5757 103.6Z" fill-rule="evenodd"  fill="#5EFFFF" >
</path>
</g>
<g filter="url(#filter_80_244)">
<path d="M17.5757 6.99984L31.6033 6.99984L32.48 6L16.4798 6L17.5757 6.99984L17.5757 6.99984Z" fill-rule="evenodd"  fill="#5EFFFF" >
</path>
</g>
<g >
<path     fill="#FFFFFF"  d="M22.424 52.395Q23.81 51.457 24.23 50.729Q24.636 50.029 24.664 48.559L24.664 48.433L22.172 48.433L22.172 47.579L26.33 47.579L26.33 45.297L24.076 45.297Q23.712 46.179 23.32 46.935L22.48 46.557Q22.956 45.717 23.369 44.681Q23.782 43.645 24.034 42.637L24.888 42.875Q24.776 43.281 24.657 43.673Q24.538 44.065 24.384 44.457L26.33 44.457L26.33 42.147L27.156 42.147L27.156 44.457L30.53 44.457L30.53 45.297L27.156 45.297L27.156 47.579L31.076 47.579L31.076 48.433L28.01 48.433L28.01 51.051Q28.01 51.457 28.073 51.639Q28.136 51.821 28.458 51.877Q28.696 51.933 28.941 51.94Q29.186 51.947 29.438 51.933Q29.648 51.919 29.774 51.884Q29.9 51.849 29.97 51.779Q30.04 51.709 30.075 51.576Q30.11 51.443 30.138 51.219Q30.166 50.939 30.201 50.505Q30.236 50.071 30.25 49.791L31.034 49.987Q31.006 50.281 30.971 50.659Q30.936 51.037 30.894 51.317Q30.824 51.737 30.761 52.01Q30.698 52.283 30.551 52.437Q30.404 52.591 30.145 52.661Q29.886 52.731 29.452 52.745Q29.144 52.759 28.885 52.759Q28.626 52.759 28.29 52.731Q27.912 52.689 27.695 52.591Q27.478 52.493 27.38 52.311Q27.282 52.129 27.261 51.863Q27.24 51.597 27.24 51.219L27.24 48.433L25.532 48.433L25.532 48.573Q25.504 50.127 25.028 51.051Q24.79 51.513 24.293 52.066Q23.796 52.619 23.012 53.081L22.424 52.395ZM31.314 54.677Q30.6 54.733 29.837 54.761Q29.074 54.789 28.339 54.796Q27.604 54.803 26.925 54.789Q26.246 54.775 25.686 54.747Q23.992 54.649 22.837 54.229Q21.682 53.809 20.87 52.927Q20.436 53.431 19.988 53.977Q19.54 54.523 19.176 55.027L18.448 54.271L20.352 52.031L20.352 48.097L18.63 48.097L18.63 47.187L21.262 47.187L21.262 52.017Q21.654 52.507 22.102 52.822Q22.55 53.137 23.096 53.347Q23.642 53.557 24.314 53.669Q24.986 53.781 25.826 53.837Q26.372 53.879 26.967 53.893Q27.562 53.907 28.234 53.893Q28.906 53.879 29.697 53.83Q30.488 53.781 31.44 53.697L31.314 54.677ZM19.862 42.623Q20.072 42.847 20.338 43.155Q20.604 43.463 20.926 43.869Q21.248 44.275 21.493 44.604Q21.738 44.933 21.892 45.185L21.178 45.773Q20.856 45.255 20.24 44.457Q19.624 43.645 19.204 43.211L19.862 42.623ZM23.012 63.803Q23.964 63.523 24.762 63.201Q25.56 62.879 26.246 62.515Q24.902 61.493 23.852 59.799L23.362 59.799L23.362 58.959L30.292 58.959L30.292 59.799Q29.396 61.423 27.828 62.543Q28.486 62.893 29.333 63.215Q30.18 63.537 31.244 63.817L30.95 64.643Q28.444 63.873 27.03 63.047Q25.56 63.901 23.306 64.629L23.012 63.803ZM18.532 65.329Q19.386 65.021 20.66 64.447L20.66 61.731L18.784 61.731L18.784 60.849L20.66 60.849L20.66 58.119L21.486 58.119L21.486 60.849L23.096 60.849L23.096 61.731L21.486 61.731L21.486 64.069Q21.85 63.901 22.123 63.768Q22.396 63.635 22.676 63.481L22.886 64.377Q22.564 64.545 22.256 64.699Q21.948 64.853 21.486 65.077L21.486 69.571Q21.486 69.907 21.444 70.145Q21.402 70.383 21.29 70.537Q21.178 70.691 20.975 70.775Q20.772 70.859 20.45 70.887Q20.114 70.915 19.792 70.929Q19.47 70.943 19.232 70.943L19.064 69.949Q19.302 69.977 19.512 69.991Q19.722 70.005 20.002 70.005Q20.226 70.005 20.359 69.984Q20.492 69.963 20.555 69.893Q20.618 69.823 20.639 69.69Q20.66 69.557 20.66 69.319L20.66 65.469Q20.072 65.735 19.596 65.931Q19.12 66.127 18.756 66.267L18.532 65.329ZM26.54 68.073L26.54 66.337L23.334 66.337L23.334 65.497L26.54 65.497L26.54 63.957L27.408 63.957L27.408 65.497L30.614 65.497L30.614 66.337L27.408 66.337L27.408 68.073L31.244 68.073L31.244 68.913L27.408 68.913L27.408 71.279L26.54 71.279L26.54 68.913L22.704 68.913L22.704 68.073L26.54 68.073ZM27.03 62.067Q28.514 61.115 29.298 59.799L24.818 59.799Q25.602 61.017 26.806 61.899L27.03 62.067ZM30.278 74.763L30.278 78.179L27.422 78.179Q27.716 78.389 28.08 78.69Q28.444 78.991 28.738 79.229L28.318 79.677L30.964 79.677L30.964 80.419L26.26 80.419Q27.898 81.763 31.468 82.323L31.174 83.191Q30.922 83.149 30.684 83.1Q30.446 83.051 30.208 82.995L30.208 86.747L25.672 86.747L25.672 82.729L29.228 82.729Q27.912 82.337 26.918 81.77Q25.924 81.203 25.21 80.419L24.566 80.419Q24.216 80.923 23.712 81.329Q22.816 82.043 20.534 82.729L24.202 82.729L24.202 86.747L19.736 86.747L19.736 82.967Q19.526 83.023 19.309 83.079Q19.092 83.135 18.854 83.191L18.504 82.365Q21.836 81.693 22.984 80.811Q23.222 80.643 23.418 80.419L18.98 80.419L18.98 79.677L23.978 79.677Q24.328 79.089 24.524 78.347L25.392 78.585Q25.294 78.893 25.196 79.166Q25.098 79.439 24.986 79.677L28.108 79.677Q27.828 79.411 27.513 79.152Q27.198 78.893 26.876 78.669L27.324 78.179L25.686 78.179L25.686 74.763L30.278 74.763ZM24.202 74.763L24.202 78.179L19.652 78.179L19.652 74.763L24.202 74.763ZM26.498 85.977L29.396 85.977L29.396 83.485L26.498 83.485L26.498 85.977ZM20.562 85.977L23.39 85.977L23.39 83.485L20.562 83.485L20.562 85.977ZM26.512 77.437L29.466 77.437L29.466 75.505L26.512 75.505L26.512 77.437ZM20.464 77.437L23.39 77.437L23.39 75.505L20.464 75.505L20.464 77.437Z">
</path>
</g>
<path d="M24.8077 22L29.0008 26.9999L24.8077 31.9998L21 31.9998L25.1932 27.1343L21 22L24.8077 22L24.8077 22Z" fill-rule="evenodd"  fill="#5EFFFF" >
</path>
<defs>
<filter id="filter_80_243" x="11.47979736328125" y="98.60009765625" width="26.00018310546875" height="10.9998779296875" filterUnits="userSpaceOnUse" color-interpolation-filters="sRGB">
<feFlood flood-opacity="0" result="feFloodId_80_243"/>
<feColorMatrix in="SourceAlpha" type="matrix" values="0 0 0 0 0 0 0 0 0 0 0 0 0 0 0 0 0 0 127 0" result="hardAlpha_80_243"/>
<feOffset dx="0" dy="0"/>
<feGaussianBlur stdDeviation="2.5"/>
<feComposite in2="hardAlpha_80_243" operator="out"/>
<feColorMatrix type="matrix" values="0 0 0 0 0.23921568627450981 0 0 0 0 0.9529411764705882 0 0 0 0 0.9686274509803922 0 0 0 1 0"/>
<feBlend mode="normal" in2="feFloodId_80_243" result="dropShadow_1_80_243"/>
<feBlend mode="normal" in="SourceGraphic" in2="dropShadow_1_80_243" result="shape_80_243"/>
</filter>
<filter id="filter_80_244" x="11.47979736328125" y="1" width="26.00018310546875" height="10.9998779296875" filterUnits="userSpaceOnUse" color-interpolation-filters="sRGB">
<feFlood flood-opacity="0" result="feFloodId_80_244"/>
<feColorMatrix in="SourceAlpha" type="matrix" values="0 0 0 0 0 0 0 0 0 0 0 0 0 0 0 0 0 0 127 0" result="hardAlpha_80_244"/>
<feOffset dx="0" dy="0"/>
<feGaussianBlur stdDeviation="2.5"/>
<feComposite in2="hardAlpha_80_244" operator="out"/>
<feColorMatrix type="matrix" values="0 0 0 0 0.23921568627450981 0 0 0 0 0.9529411764705882 0 0 0 0 0.9686274509803922 0 0 0 1 0"/>
<feBlend mode="normal" in2="feFloodId_80_244" result="dropShadow_1_80_244"/>
<feBlend mode="normal" in="SourceGraphic" in2="dropShadow_1_80_244" result="shape_80_244"/>
</filter>
</defs>
</svg>
