<svg xmlns="http://www.w3.org/2000/svg" xmlns:xlink="http://www.w3.org/1999/xlink" width="404" height="151.67138671875" viewBox="0 0 404 151.67138671875" fill="none">
<g filter="url(#filter_57_1080)">
<path d="M248.211 129.127C248.534 122.094 228.094 116.308 202.56 116.203C177.024 116.097 156.062 121.712 155.739 128.746C155.416 135.777 175.856 141.564 201.39 141.67C226.926 141.775 247.888 136.16 248.211 129.127Z"   fill="url(#linear_fill_57_1080)" >
</path>
</g>
<path d="M404 0L0 0L144.84 126.4C144.773 126.711 144.733 127.014 144.72 127.33C144.319 137.061 169.648 145.075 201.28 145.22C232.914 145.367 258.879 137.591 259.28 127.86C259.298 127.391 259.258 126.93 259.16 126.47L404 0Z"   fill="url(#linear_fill_57_1207)" >
</path>
<defs>
<radialGradient id="linear_fill_57_1080" cx="0" cy="0" r="1" gradientTransform="translate(201.97509765625 128.93603515625) rotate(90) scale(46.2392578125, 46.2392578125)" gradientUnits="userSpaceOnUse">
<stop offset="0" stop-color="#FFFFFF"  />
<stop offset="1" stop-color="#00B9FF"  />
</radialGradient>
<filter id="filter_57_1080" x="145.7353515625" y="106.201171875" width="112.4794921875" height="45.47021484375" filterUnits="userSpaceOnUse" color-interpolation-filters="sRGB">
<feFlood flood-opacity="0" result="feFloodId_57_1080"/>
<feBlend mode="normal" in="SourceGraphic" in2="feFloodId_57_1080" result="shape"/>
<feGaussianBlur result="gaussian_blur_57_1080" stdDeviation="5"/>
</filter>
<linearGradient id="linear_fill_57_1207" x1="202" y1="115.20947265625" x2="202" y2="0" gradientUnits="userSpaceOnUse">
<stop offset="0" stop-color="#14FFEF" stop-opacity="0.45" />
<stop offset="1" stop-color="#223461" stop-opacity="0" />
</linearGradient>
</defs>
</svg>
