<svg xmlns="http://www.w3.org/2000/svg" xmlns:xlink="http://www.w3.org/1999/xlink" width="420" height="155.99951171875" viewBox="0 0 420 155.99951171875" fill="none">
<g style="mix-blend-mode:multiply">
<g filter="url(#filter_57_1054)">
<path d="M409.984 91.5275C411.38 60.9906 322.975 35.8628 212.529 35.4048C102.081 34.9454 11.414 59.331 10.0163 89.8692C8.6203 120.408 97.0249 145.534 207.471 145.993C317.919 146.45 408.586 122.066 409.984 91.5275Z"  style="mix-blend-mode:multiply" fill="#576FAD" >
</path>
</g>
</g>
<ellipse cx="210.00009155273438" cy="47.059478759765625" rx="170.19638061523438" ry="47.059478759765625"   fill="url(#linear_fill_57_1055)" >
</ellipse>
<g style="mix-blend-mode:multiply">
<path d="M320.641 37.3224C320.65 37.3307 320.659 37.339 320.668 37.3473C320.659 37.339 320.65 37.3307 320.641 37.3224ZM325.411 46.8476C324.605 64.4701 272.28 78.5442 208.542 78.279C144.802 78.0154 93.7829 63.5137 94.5892 45.8895C94.7268 42.8658 96.3815 39.9483 99.3509 37.1878C98.9401 37.5691 98.5294 37.9503 98.1202 38.3299C95.0998 41.127 93.4151 44.0898 93.2741 47.1579C92.4603 64.9807 144.059 79.6482 208.523 79.9147C272.988 80.1827 325.908 65.9492 326.723 48.1263C326.876 44.778 325.181 41.5428 321.899 38.4942C321.489 38.1108 321.08 37.7304 320.668 37.3473C323.895 40.3568 325.562 43.5476 325.411 46.8476ZM99.3796 37.1611C99.37 37.17 99.3604 37.1789 99.3509 37.1878C99.3605 37.1789 99.37 37.17 99.3796 37.1611Z" fill-rule="evenodd" style="mix-blend-mode:multiply" fill="#576FAD" >
</path>
</g>
<path d="M325.411 46.2645C324.605 63.887 272.28 77.9609 208.542 77.6958C144.802 77.4323 93.7829 62.9306 94.5892 45.3065C94.7269 42.2791 96.3854 39.3585 99.3612 36.5952C98.9469 36.9795 98.5329 37.3639 98.1202 37.7467C95.0998 40.5454 93.4151 43.5066 93.2741 46.5747C92.4603 64.3976 144.059 79.0651 208.523 79.3315C272.988 79.5998 325.908 65.3662 326.723 47.5431C326.876 44.1948 325.181 40.9597 321.899 37.911C321.481 37.5195 321.062 37.1308 320.641 36.7407C323.886 39.7562 325.562 42.9554 325.411 46.2645ZM99.3796 36.5781C99.3735 36.5838 99.3673 36.5895 99.3612 36.5952C99.3673 36.5895 99.3735 36.5838 99.3796 36.5781Z" fill-rule="evenodd"  fill="url(#linear_fill_57_1057)" >
</path>
<path d="M299.893 35.158C300.52 21.432 260.787 10.1385 211.145 9.93202C161.502 9.72731 120.752 20.6878 120.123 34.4123C119.89 39.5198 125.244 44.2901 134.616 48.277C135.889 48.8176 137.164 49.3615 138.437 49.9021C129.54 46.1186 124.459 41.5879 124.68 36.7425C125.277 23.7122 163.962 13.3075 211.086 13.5032C258.21 13.699 295.93 24.4187 295.334 37.4488C295.122 42.0866 290.085 46.3912 281.561 50.003C282.834 49.4639 284.109 48.9246 285.383 48.3825C294.364 44.5763 299.669 40.0426 299.893 35.158Z"   fill="url(#linear_fill_57_1058)" >
</path>
<g  style="mix-blend-mode:screen" opacity="0.75">
<g opacity="0.2">
<path d="M275.13 33.9388C275.584 23.9798 246.917 15.786 211.105 15.6368C175.29 15.4877 145.891 23.439 145.438 33.3996C144.984 43.3571 173.651 51.5522 209.464 51.7015C245.278 51.8505 274.678 43.8993 275.13 33.9388Z"   fill="#0062FF" >
</path>
</g>
<path d="M275.13 33.9388C275.584 23.9798 246.917 15.786 211.105 15.6368C175.29 15.4877 145.891 23.439 145.438 33.3996C144.984 43.3571 173.651 51.5522 209.464 51.7015C245.278 51.8505 274.678 43.8993 275.13 33.9388Z" stroke="rgba(0, 98, 255, 1)" stroke-width="1"   >
</path>
<g filter="url(#filter_57_1064)">
<path d="M209.446 53.7052ZM281.306 34.4452C281.796 23.6452 250.436 14.7552 211.246 14.5952C172.056 14.4352 139.886 23.0552 139.396 33.8552C138.896 44.6552 170.266 53.5452 209.446 53.7052C248.636 53.8652 280.806 45.2452 281.306 34.4452Z" fill-rule="evenodd"  fill="url(#linear_fill_57_1064)" >
</path>
</g>
</g>
<path d="M323.286 35.2559C324.076 17.9571 274.003 3.72357 211.441 3.46442C148.879 3.20545 97.522 17.0173 96.731 34.3145C95.9413 51.6134 146.016 65.8469 208.576 66.1046C271.138 66.3651 322.494 52.5532 323.286 35.2559ZM211.145 9.93246C161.503 9.72775 120.752 20.6882 120.123 34.4127C119.497 48.1389 159.23 59.4324 208.872 59.6388C258.514 59.8436 299.266 48.8845 299.893 35.1584C300.521 21.4324 260.787 10.1389 211.145 9.93246Z" fill-rule="evenodd"  fill="url(#linear_fill_57_1065)" >
</path>
<g style="mix-blend-mode:screen">
<path d="M120.134 34.8809C120.982 21.2089 161.642 10.3115 211.145 10.515C260.083 10.7184 299.389 21.697 299.893 35.158C300.521 21.432 260.787 10.1385 211.145 9.93202C161.502 9.72731 120.752 20.6878 120.123 34.4123C120.116 34.5674 120.131 34.7241 120.134 34.8809Z"  style="mix-blend-mode:screen" fill="url(#linear_fill_57_1068)" >
</path>
</g>
<path d="M319.783 27.0879C319.787 27.0921 319.791 27.0964 319.795 27.1007C319.791 27.0964 319.787 27.0921 319.783 27.0879ZM323.286 35.256C322.493 52.5533 271.138 66.3651 208.576 66.1047C146.016 65.8471 95.941 51.6134 96.7307 34.3146C96.8476 31.7718 98.0555 29.3053 100.235 26.945C99.55 27.6854 98.8655 28.4229 98.1839 29.1604C95.9546 31.5719 94.7145 34.0919 94.5973 36.6914C93.7913 54.314 144.809 68.8142 208.548 69.0792C272.287 69.343 324.612 55.2705 325.418 37.6479C325.548 34.7741 324.304 31.983 321.849 29.3247C321.164 28.5847 320.479 27.8421 319.795 27.1007C322.196 29.7056 323.415 32.4411 323.286 35.256ZM100.253 26.9253C100.247 26.9319 100.241 26.9384 100.235 26.945C100.241 26.9384 100.247 26.9319 100.253 26.9253Z" fill-rule="evenodd"  fill="url(#linear_fill_57_1069)" >
</path>
<g style="mix-blend-mode:screen">
<path d="M319.783 27.0879C319.787 27.0921 319.791 27.0964 319.795 27.1007C319.791 27.0964 319.787 27.0921 319.783 27.0879ZM323.286 35.256C322.493 52.5533 271.138 66.3651 208.576 66.1047C146.016 65.8471 95.941 51.6134 96.7307 34.3146C96.8476 31.7718 98.0555 29.3053 100.235 26.945C99.55 27.6854 98.8655 28.4229 98.1839 29.1604C95.9546 31.5719 94.7145 34.0919 94.5973 36.6914C93.7913 54.314 144.809 68.8142 208.548 69.0792C272.287 69.343 324.612 55.2705 325.418 37.6479C325.548 34.7741 324.304 31.983 321.849 29.3247C321.164 28.5847 320.479 27.8421 319.795 27.1007C322.196 29.7056 323.415 32.4411 323.286 35.256ZM100.253 26.9253C100.247 26.9319 100.241 26.9384 100.235 26.945C100.241 26.9384 100.247 26.9319 100.253 26.9253Z" fill-rule="evenodd" style="mix-blend-mode:screen" fill="url(#linear_fill_57_1070)" >
</path>
</g>
<path d="M94.5974 36.6914C94.5851 36.9614 94.5849 37.2306 94.5967 37.4991L94.5974 36.6914ZM94.59 45.307C93.7838 62.931 144.803 77.4329 208.543 77.6964C272.281 77.9615 324.606 63.8875 325.412 46.2649L325.418 37.6479C324.612 55.2705 272.287 69.343 208.548 69.0793C145.785 68.8183 95.3576 54.7549 94.5967 37.4991L94.59 45.307Z" fill-rule="evenodd"  fill="url(#linear_fill_57_1071)" >
</path>
<g style="mix-blend-mode:screen">
<path d="M208.543 77.6963C145.798 77.4357 95.3815 63.3814 94.5902 46.1309C94.1549 63.6689 145.03 78.0683 208.543 78.3319C272.281 78.597 324.606 64.5245 325.412 46.9005L325.412 46.2633L325.412 46.2649C324.606 63.8874 272.281 77.9614 208.543 77.6963Z"  style="mix-blend-mode:screen" fill="url(#linear_fill_57_1072)" >
</path>
</g>
<path d="M380.182 47.7648C378.993 73.7529 301.837 94.5039 207.848 94.1138C113.858 93.7236 38.6273 72.34 39.8162 46.3536C40.022 41.859 42.5006 37.5213 46.9429 33.4229C38.5011 41.2099 30.058 48.9971 21.6165 56.7855C16.4822 61.5212 13.6192 66.5307 13.3837 71.7225C12.0113 101.744 98.9179 126.446 207.496 126.895C316.075 127.346 405.208 103.374 406.58 73.3537C406.84 67.6905 403.957 62.2169 398.383 57.0596C389.951 49.2606 381.518 41.4613 373.086 33.6609C377.912 38.1266 380.407 42.8653 380.182 47.7648Z"   fill="url(#linear_fill_57_1073)" >
</path>
<g style="mix-blend-mode:screen">
<path d="M207.848 94.1141C115.606 93.7315 41.441 73.1283 39.8392 47.7969C39.8332 47.8753 39.8212 47.9506 39.8166 48.0274C38.6276 74.0138 113.859 95.399 207.848 95.7877C301.837 96.1776 378.993 75.4268 380.182 49.4402C380.205 48.9567 380.191 48.4746 380.163 47.9942C378.529 73.8753 301.56 94.5028 207.848 94.1141Z"  style="mix-blend-mode:screen" fill="url(#linear_fill_57_1074)" >
</path>
</g>
<g  opacity="0.25">
</g>
<g filter="url(#filter_57_1076)">
<path d="M13.384 71.7227C13.3628 72.1855 13.3627 72.6471 13.3832 73.1073L13.384 71.7227ZM13.3764 85.268C12.004 115.29 98.9107 139.991 207.489 140.442C316.068 140.892 405.201 116.921 406.574 86.8978L406.58 73.3538C405.208 103.374 316.076 127.347 207.497 126.895C100.592 126.453 14.6963 102.5 13.3832 73.1073L13.3764 85.268Z" fill-rule="evenodd"  fill="url(#linear_fill_57_1076)" >
</path>
</g>
<g style="mix-blend-mode:screen">
<path d="M13.3837 71.7227C13.3626 72.1842 13.3624 72.6446 13.3828 73.1036L13.3837 71.7227ZM13.3821 74.1296C14.8322 103.49 100.673 127.404 207.489 127.847C316.068 128.297 405.201 104.326 406.574 74.3044L406.576 73.4096C405.092 103.406 316.006 127.347 207.496 126.895C100.587 126.453 14.6889 102.498 13.3828 73.1036L13.3821 74.1296Z" fill-rule="evenodd" style="mix-blend-mode:screen" fill="url(#linear_fill_57_1077)" >
</path>
</g>
<g style="mix-blend-mode:screen">
<path d="M13.3837 84.4385C13.3626 84.9001 13.3624 85.3604 13.3828 85.8194L13.3837 84.4385ZM13.3821 86.8454C14.8322 116.206 100.673 140.12 207.489 140.563C316.068 141.013 405.201 117.042 406.574 87.0201L406.576 86.1254C405.092 116.122 316.006 140.062 207.496 139.611C100.587 139.169 14.6889 115.214 13.3828 85.8194L13.3821 86.8454Z" fill-rule="evenodd" style="mix-blend-mode:screen" fill="url(#linear_fill_57_1078)" >
</path>
</g>
<defs>
<filter id="filter_57_1054" x="0" y="25.3984375" width="420" height="130.60107421875" filterUnits="userSpaceOnUse" color-interpolation-filters="sRGB">
<feFlood flood-opacity="0" result="feFloodId_57_1054"/>
<feBlend mode="normal" in="SourceGraphic" in2="feFloodId_57_1054" result="shape"/>
<feGaussianBlur result="gaussian_blur_57_1054" stdDeviation="5"/>
</filter>
<linearGradient id="linear_fill_57_1055" x1="210.0000002522811" y1="81.78248675461873" x2="210.0000002522811" y2="22.34730140029569" gradientUnits="userSpaceOnUse">
<stop offset="0.0475" stop-color="#0A8BF5"  />
<stop offset="0.5896" stop-color="#0A5CA8"  />
</linearGradient>
<linearGradient id="linear_fill_57_1057" x1="89.3134765625" y1="57.95654296875" x2="315.162109375" y2="57.95654296875" gradientUnits="userSpaceOnUse">
<stop offset="0" stop-color="#000D38"  />
<stop offset="0.5483869910240173" stop-color="#0041A3"  />
<stop offset="1" stop-color="#000D38"  />
</linearGradient>
<linearGradient id="linear_fill_57_1058" x1="120.1162109375" y1="29.96630859375" x2="299.89990234375" y2="29.96630859375" gradientUnits="userSpaceOnUse">
<stop offset="0" stop-color="#000D38"  />
<stop offset="0.5483869910240173" stop-color="#0041A3"  />
<stop offset="1" stop-color="#000D38"  />
</linearGradient>
<radialGradient id="linear_fill_57_1064" cx="0" cy="0" r="1" gradientTransform="translate(210.34814453125 34.1513671875) rotate(90) scale(70.96142578125, 70.96142578125)" gradientUnits="userSpaceOnUse">
<stop offset="0" stop-color="#FFFFFF"  />
<stop offset="1" stop-color="#00B9FF"  />
</radialGradient>
<filter id="filter_57_1064" x="129.39013671875" y="4.59326171875" width="161.921875" height="59.11376953125" filterUnits="userSpaceOnUse" color-interpolation-filters="sRGB">
<feFlood flood-opacity="0" result="feFloodId_57_1064"/>
<feBlend mode="normal" in="SourceGraphic" in2="feFloodId_57_1064" result="shape"/>
<feGaussianBlur result="gaussian_blur_57_1064" stdDeviation="5"/>
</filter>
<linearGradient id="linear_fill_57_1065" x1="210.00830078125" y1="67.37548828125" x2="210.00830078125" y2="8.00927734375" gradientUnits="userSpaceOnUse">
<stop offset="0.04754146561026573" stop-color="#2F589C"  />
<stop offset="0.5896350741386414" stop-color="#223461"  />
</linearGradient>
<radialGradient id="linear_fill_57_1068" cx="0" cy="0" r="1" gradientTransform="translate(212.03564453125 11.34619140625) rotate(90) scale(4705.08369702578, 658.10546875)" gradientUnits="userSpaceOnUse">
<stop offset="0.020725399255752563" stop-color="#AAFDFF"  />
<stop offset="0.06217620149254799" stop-color="#55A4FF"  />
<stop offset="0.08881331980228424" stop-color="#4095F9"  />
<stop offset="0.1430516391992569" stop-color="#1D7AF0"  />
<stop offset="0.18743355572223663" stop-color="#076AEB"  />
<stop offset="0.21612900495529175" stop-color="#0065E9"  />
<stop offset="0.22809191048145294" stop-color="#005CD4"  />
<stop offset="0.26318448781967163" stop-color="#00439C"  />
<stop offset="0.2984819710254669" stop-color="#002F6C"  />
<stop offset="0.33324989676475525" stop-color="#001E45"  />
<stop offset="0.36738112568855286" stop-color="#001027"  />
<stop offset="0.4006848931312561" stop-color="#000711"  />
<stop offset="0.4327912926673889" stop-color="#000104"  />
<stop offset="0.4623660147190094" stop-color="#000000"  />
<stop offset="0.4965331256389618" stop-color="#010203"  />
<stop offset="0.5289052724838257" stop-color="#05090F"  />
<stop offset="0.5605776906013489" stop-color="#0B1622"  />
<stop offset="0.5918117761611938" stop-color="#14273D"  />
<stop offset="0.6227591633796692" stop-color="#1F3D5F"  />
<stop offset="0.6534768342971802" stop-color="#2E598A"  />
<stop offset="0.683994472026825" stop-color="#3E79BC"  />
<stop offset="0.7136581540107727" stop-color="#519EF5"  />
<stop offset="0.7236581540107727" stop-color="#55A4FF"  />
<stop offset="0.7437970042228699" stop-color="#4095F9"  />
<stop offset="0.7961413860321045" stop-color="#1D7AF0"  />
<stop offset="0.8389735817909241" stop-color="#076AEB"  />
<stop offset="0.8666669726371765" stop-color="#0065E9"  />
<stop offset="0.8766669726371765" stop-color="#005CD4"  />
<stop offset="0.8921467065811157" stop-color="#00439C"  />
<stop offset="0.9112597107887268" stop-color="#002F6C"  />
<stop offset="0.9300858974456787" stop-color="#001E45"  />
<stop offset="0.9485673308372498" stop-color="#001027"  />
<stop offset="0.966600775718689" stop-color="#000711"  />
<stop offset="0.9839858412742615" stop-color="#000104"  />
<stop offset="1" stop-color="#000000"  />
</radialGradient>
<linearGradient id="linear_fill_57_1069" x1="210.0068359375" y1="84.037109375" x2="210.0068359375" y2="9.0537109375" gradientUnits="userSpaceOnUse">
<stop offset="0" stop-color="#000D38"  />
<stop offset="0.5483869910240173" stop-color="#0041A3"  />
<stop offset="1" stop-color="#000D38"  />
</linearGradient>
<radialGradient id="linear_fill_57_1070" cx="0" cy="0" r="1" gradientTransform="translate(211.6142578125 67.29443359375) rotate(90) scale(3806.983037494333, 692.981689453125)" gradientUnits="userSpaceOnUse">
<stop offset="0.020725399255752563" stop-color="#AAFDFF"  />
<stop offset="0.06217620149254799" stop-color="#55A4FF"  />
<stop offset="0.08881331980228424" stop-color="#4095F9"  />
<stop offset="0.1430516391992569" stop-color="#1D7AF0"  />
<stop offset="0.18743355572223663" stop-color="#076AEB"  />
<stop offset="0.21612900495529175" stop-color="#0065E9"  />
<stop offset="0.22809191048145294" stop-color="#005CD4"  />
<stop offset="0.26318448781967163" stop-color="#00439C"  />
<stop offset="0.2984819710254669" stop-color="#002F6C"  />
<stop offset="0.33324989676475525" stop-color="#001E45"  />
<stop offset="0.36738112568855286" stop-color="#001027"  />
<stop offset="0.4006848931312561" stop-color="#000711"  />
<stop offset="0.4327912926673889" stop-color="#000104"  />
<stop offset="0.4623660147190094" stop-color="#000000"  />
<stop offset="0.4965331256389618" stop-color="#010203"  />
<stop offset="0.5289052724838257" stop-color="#05090F"  />
<stop offset="0.5605776906013489" stop-color="#0B1622"  />
<stop offset="0.5918117761611938" stop-color="#14273D"  />
<stop offset="0.6227591633796692" stop-color="#1F3D5F"  />
<stop offset="0.6534768342971802" stop-color="#2E598A"  />
<stop offset="0.683994472026825" stop-color="#3E79BC"  />
<stop offset="0.7136581540107727" stop-color="#519EF5"  />
<stop offset="0.7236581540107727" stop-color="#55A4FF"  />
<stop offset="0.7437970042228699" stop-color="#4095F9"  />
<stop offset="0.7961413860321045" stop-color="#1D7AF0"  />
<stop offset="0.8389735817909241" stop-color="#076AEB"  />
<stop offset="0.8666669726371765" stop-color="#0065E9"  />
<stop offset="0.8766669726371765" stop-color="#005CD4"  />
<stop offset="0.8921467065811157" stop-color="#00439C"  />
<stop offset="0.9112597107887268" stop-color="#002F6C"  />
<stop offset="0.9300858974456787" stop-color="#001E45"  />
<stop offset="0.9485673308372498" stop-color="#001027"  />
<stop offset="0.966600775718689" stop-color="#000711"  />
<stop offset="0.9839858412742615" stop-color="#000104"  />
<stop offset="1" stop-color="#000000"  />
</radialGradient>
<linearGradient id="linear_fill_57_1071" x1="94.58056640625" y1="57.1953125" x2="325.4169921875" y2="57.1953125" gradientUnits="userSpaceOnUse">
<stop offset="0" stop-color="#0C0E15"  />
<stop offset="0.2374301701784134" stop-color="#111E36"  />
<stop offset="0.48882681131362915" stop-color="#2352A3"  />
<stop offset="0.7290502786636353" stop-color="#111D35"  />
<stop offset="0.9804469347000122" stop-color="#0C0E15"  />
</linearGradient>
<radialGradient id="linear_fill_57_1072" cx="0" cy="0" r="1" gradientTransform="translate(210.55908203125 81.91796875) rotate(90) scale(6265.337088737442, 871.273681640625)" gradientUnits="userSpaceOnUse">
<stop offset="0.020725399255752563" stop-color="#AAFDFF"  />
<stop offset="0.06217620149254799" stop-color="#55A4FF"  />
<stop offset="0.08881331980228424" stop-color="#4095F9"  />
<stop offset="0.1430516391992569" stop-color="#1D7AF0"  />
<stop offset="0.18743355572223663" stop-color="#076AEB"  />
<stop offset="0.21612900495529175" stop-color="#0065E9"  />
<stop offset="0.22809191048145294" stop-color="#005CD4"  />
<stop offset="0.26318448781967163" stop-color="#00439C"  />
<stop offset="0.2984819710254669" stop-color="#002F6C"  />
<stop offset="0.33324989676475525" stop-color="#001E45"  />
<stop offset="0.36738112568855286" stop-color="#001027"  />
<stop offset="0.4006848931312561" stop-color="#000711"  />
<stop offset="0.4327912926673889" stop-color="#000104"  />
<stop offset="0.4623660147190094" stop-color="#000000"  />
<stop offset="0.4965331256389618" stop-color="#010203"  />
<stop offset="0.5289052724838257" stop-color="#05090F"  />
<stop offset="0.5605776906013489" stop-color="#0B1622"  />
<stop offset="0.5918117761611938" stop-color="#14273D"  />
<stop offset="0.6227591633796692" stop-color="#1F3D5F"  />
<stop offset="0.6534768342971802" stop-color="#2E598A"  />
<stop offset="0.683994472026825" stop-color="#3E79BC"  />
<stop offset="0.7136581540107727" stop-color="#519EF5"  />
<stop offset="0.7236581540107727" stop-color="#55A4FF"  />
<stop offset="0.7437970042228699" stop-color="#4095F9"  />
<stop offset="0.7961413860321045" stop-color="#1D7AF0"  />
<stop offset="0.8389735817909241" stop-color="#076AEB"  />
<stop offset="0.8666669726371765" stop-color="#0065E9"  />
<stop offset="0.8766669726371765" stop-color="#005CD4"  />
<stop offset="0.8921467065811157" stop-color="#00439C"  />
<stop offset="0.9112597107887268" stop-color="#002F6C"  />
<stop offset="0.9300858974456787" stop-color="#001E45"  />
<stop offset="0.9485673308372498" stop-color="#001027"  />
<stop offset="0.966600775718689" stop-color="#000711"  />
<stop offset="0.9839858412742615" stop-color="#000104"  />
<stop offset="1" stop-color="#000000"  />
</radialGradient>
<linearGradient id="linear_fill_57_1073" x1="13.36669921875" y1="80.162109375" x2="406.59619140625" y2="80.162109375" gradientUnits="userSpaceOnUse">
<stop offset="0" stop-color="#0C0E15"  />
<stop offset="0.2374301701784134" stop-color="#111E36"  />
<stop offset="0.48882681131362915" stop-color="#2352A3"  />
<stop offset="0.7290502786636353" stop-color="#111D35"  />
<stop offset="0.9804469347000122" stop-color="#0C0E15"  />
</linearGradient>
<radialGradient id="linear_fill_57_1074" cx="0" cy="0" r="1" gradientTransform="translate(208.0234375 95.47900390625) rotate(90) scale(9237.537969960606, 1298.243896484375)" gradientUnits="userSpaceOnUse">
<stop offset="0.020725399255752563" stop-color="#AAFDFF"  />
<stop offset="0.06217620149254799" stop-color="#55A4FF"  />
<stop offset="0.08881331980228424" stop-color="#4095F9"  />
<stop offset="0.1430516391992569" stop-color="#1D7AF0"  />
<stop offset="0.18743355572223663" stop-color="#076AEB"  />
<stop offset="0.21612900495529175" stop-color="#0065E9"  />
<stop offset="0.22809191048145294" stop-color="#005CD4"  />
<stop offset="0.26318448781967163" stop-color="#00439C"  />
<stop offset="0.2984819710254669" stop-color="#002F6C"  />
<stop offset="0.33324989676475525" stop-color="#001E45"  />
<stop offset="0.36738112568855286" stop-color="#001027"  />
<stop offset="0.4006848931312561" stop-color="#000711"  />
<stop offset="0.4327912926673889" stop-color="#000104"  />
<stop offset="0.4623660147190094" stop-color="#000000"  />
<stop offset="0.4965331256389618" stop-color="#010203"  />
<stop offset="0.5289052724838257" stop-color="#05090F"  />
<stop offset="0.5605776906013489" stop-color="#0B1622"  />
<stop offset="0.5918117761611938" stop-color="#14273D"  />
<stop offset="0.6227591633796692" stop-color="#1F3D5F"  />
<stop offset="0.6534768342971802" stop-color="#2E598A"  />
<stop offset="0.683994472026825" stop-color="#3E79BC"  />
<stop offset="0.7136581540107727" stop-color="#519EF5"  />
<stop offset="0.7236581540107727" stop-color="#55A4FF"  />
<stop offset="0.7437970042228699" stop-color="#4095F9"  />
<stop offset="0.7961413860321045" stop-color="#1D7AF0"  />
<stop offset="0.8389735817909241" stop-color="#076AEB"  />
<stop offset="0.8666669726371765" stop-color="#0065E9"  />
<stop offset="0.8766669726371765" stop-color="#005CD4"  />
<stop offset="0.8921467065811157" stop-color="#00439C"  />
<stop offset="0.9112597107887268" stop-color="#002F6C"  />
<stop offset="0.9300858974456787" stop-color="#001E45"  />
<stop offset="0.9485673308372498" stop-color="#001027"  />
<stop offset="0.966600775718689" stop-color="#000711"  />
<stop offset="0.9839858412742615" stop-color="#000104"  />
<stop offset="1" stop-color="#000000"  />
</radialGradient>
<linearGradient id="linear_fill_57_1076" x1="13.3603515625" y1="106.08544921875" x2="406.580078125" y2="106.08544921875" gradientUnits="userSpaceOnUse">
<stop offset="0" stop-color="#105C7D"  />
<stop offset="0.2374" stop-color="#111E36"  />
<stop offset="0.48882681131362915" stop-color="#2352A3"  />
<stop offset="0.7290502786636353" stop-color="#111D35"  />
<stop offset="0.9804" stop-color="#105C7D"  />
</linearGradient>
<filter id="filter_57_1076" x="13.3603515625" y="71.72265625" width="405.2197265625" height="81.16943359375" filterUnits="userSpaceOnUse" color-interpolation-filters="sRGB">
<feFlood flood-opacity="0" result="feFloodId_57_1076"/>
<feColorMatrix in="SourceAlpha" type="matrix" values="0 0 0 0 0 0 0 0 0 0 0 0 0 0 0 0 0 0 127 0" result="hardAlpha_57_1076"/>
<feOffset dx="7" dy="7"/>
<feGaussianBlur stdDeviation="2.5"/>
<feComposite in2="hardAlpha_57_1076" operator="out"/>
<feColorMatrix type="matrix" values="0 0 0 0 0 0 0 0 0 0 0 0 0 0 0 0 0 0 0.75 0"/>
<feBlend mode="normal" in2="feFloodId_57_1076" result="dropShadow_1_57_1076"/>
<feBlend mode="normal" in="SourceGraphic" in2="dropShadow_1_57_1076" result="shape_57_1076"/>
</filter>
<radialGradient id="linear_fill_57_1077" cx="0" cy="0" r="1" gradientTransform="translate(208.86767578125 128.1162109375) rotate(90) scale(11237.535163087323, 1598.8935546875)" gradientUnits="userSpaceOnUse">
<stop offset="0.020725399255752563" stop-color="#AAFDFF"  />
<stop offset="0.06217620149254799" stop-color="#55A4FF"  />
<stop offset="0.08881331980228424" stop-color="#4095F9"  />
<stop offset="0.1430516391992569" stop-color="#1D7AF0"  />
<stop offset="0.18743355572223663" stop-color="#076AEB"  />
<stop offset="0.21612900495529175" stop-color="#0065E9"  />
<stop offset="0.22809191048145294" stop-color="#005CD4"  />
<stop offset="0.26318448781967163" stop-color="#00439C"  />
<stop offset="0.2984819710254669" stop-color="#002F6C"  />
<stop offset="0.33324989676475525" stop-color="#001E45"  />
<stop offset="0.36738112568855286" stop-color="#001027"  />
<stop offset="0.4006848931312561" stop-color="#000711"  />
<stop offset="0.4327912926673889" stop-color="#000104"  />
<stop offset="0.4623660147190094" stop-color="#000000"  />
<stop offset="0.4965331256389618" stop-color="#010203"  />
<stop offset="0.5289052724838257" stop-color="#05090F"  />
<stop offset="0.5605776906013489" stop-color="#0B1622"  />
<stop offset="0.5918117761611938" stop-color="#14273D"  />
<stop offset="0.6227591633796692" stop-color="#1F3D5F"  />
<stop offset="0.6534768342971802" stop-color="#2E598A"  />
<stop offset="0.683994472026825" stop-color="#3E79BC"  />
<stop offset="0.7136581540107727" stop-color="#519EF5"  />
<stop offset="0.7236581540107727" stop-color="#55A4FF"  />
<stop offset="0.7437970042228699" stop-color="#4095F9"  />
<stop offset="0.7961413860321045" stop-color="#1D7AF0"  />
<stop offset="0.8389735817909241" stop-color="#076AEB"  />
<stop offset="0.8666669726371765" stop-color="#0065E9"  />
<stop offset="0.8766669726371765" stop-color="#005CD4"  />
<stop offset="0.8921467065811157" stop-color="#00439C"  />
<stop offset="0.9112597107887268" stop-color="#002F6C"  />
<stop offset="0.9300858974456787" stop-color="#001E45"  />
<stop offset="0.9485673308372498" stop-color="#001027"  />
<stop offset="0.966600775718689" stop-color="#000711"  />
<stop offset="0.9839858412742615" stop-color="#000104"  />
<stop offset="1" stop-color="#000000"  />
</radialGradient>
<radialGradient id="linear_fill_57_1078" cx="0" cy="0" r="1" gradientTransform="translate(208.86767578125 140.83203125) rotate(90) scale(11237.535163087323, 1598.8935546875)" gradientUnits="userSpaceOnUse">
<stop offset="0.020725399255752563" stop-color="#AAFDFF"  />
<stop offset="0.06217620149254799" stop-color="#55A4FF"  />
<stop offset="0.08881331980228424" stop-color="#4095F9"  />
<stop offset="0.1430516391992569" stop-color="#1D7AF0"  />
<stop offset="0.18743355572223663" stop-color="#076AEB"  />
<stop offset="0.21612900495529175" stop-color="#0065E9"  />
<stop offset="0.22809191048145294" stop-color="#005CD4"  />
<stop offset="0.26318448781967163" stop-color="#00439C"  />
<stop offset="0.2984819710254669" stop-color="#002F6C"  />
<stop offset="0.33324989676475525" stop-color="#001E45"  />
<stop offset="0.36738112568855286" stop-color="#001027"  />
<stop offset="0.4006848931312561" stop-color="#000711"  />
<stop offset="0.4327912926673889" stop-color="#000104"  />
<stop offset="0.4623660147190094" stop-color="#000000"  />
<stop offset="0.4965331256389618" stop-color="#010203"  />
<stop offset="0.5289052724838257" stop-color="#05090F"  />
<stop offset="0.5605776906013489" stop-color="#0B1622"  />
<stop offset="0.5918117761611938" stop-color="#14273D"  />
<stop offset="0.6227591633796692" stop-color="#1F3D5F"  />
<stop offset="0.6534768342971802" stop-color="#2E598A"  />
<stop offset="0.683994472026825" stop-color="#3E79BC"  />
<stop offset="0.7136581540107727" stop-color="#519EF5"  />
<stop offset="0.7236581540107727" stop-color="#55A4FF"  />
<stop offset="0.7437970042228699" stop-color="#4095F9"  />
<stop offset="0.7961413860321045" stop-color="#1D7AF0"  />
<stop offset="0.8389735817909241" stop-color="#076AEB"  />
<stop offset="0.8666669726371765" stop-color="#0065E9"  />
<stop offset="0.8766669726371765" stop-color="#005CD4"  />
<stop offset="0.8921467065811157" stop-color="#00439C"  />
<stop offset="0.9112597107887268" stop-color="#002F6C"  />
<stop offset="0.9300858974456787" stop-color="#001E45"  />
<stop offset="0.9485673308372498" stop-color="#001027"  />
<stop offset="0.966600775718689" stop-color="#000711"  />
<stop offset="0.9839858412742615" stop-color="#000104"  />
<stop offset="1" stop-color="#000000"  />
</radialGradient>
</defs>
</svg>
