<svg xmlns="http://www.w3.org/2000/svg" xmlns:xlink="http://www.w3.org/1999/xlink" width="233.894287109375" height="76.09326171875" viewBox="0 0 233.894287109375 76.09326171875" fill="none">
<rect x="37.31982421875" y="15.98095703125" width="173.1727294921875" height="38.796356201171875"   fill="url(#linear_fill_57_1223)" >
</rect>
<rect x="49.56591796875" y="14.8515625" width="184.3284912109375" height="1.12921142578125"   fill="url(#linear_fill_57_1224)" >
</rect>
<rect x="49.56591796875" y="54.3662109375" width="184.3284912109375" height="1.129180908203125"   fill="url(#linear_fill_57_1225)" >
</rect>
<g filter="url(#filter_57_1227)">
<path d="M68.4193 35.0467L55.0645 12L28.3548 12L15 35.0467L28.3548 58.0934L55.0645 58.0934L68.4193 35.0467Z"   fill="url(#linear_fill_57_1227)" >
</path>
</g>
<path d="M55.6156 11.6236L69.5229 35.6241L55.6156 59.6236L27.8014 59.6236L13.894 35.6241L27.8014 11.6236L55.6156 11.6236ZM54.5113 13.5304L67.3135 35.624L54.5113 57.7171L28.9061 57.7171L16.104 35.624L28.9061 13.5304L54.5113 13.5304Z" fill-rule="evenodd"  fill="url(#linear_fill_57_1228)" >
</path>
<g opacity="0.3">
<path d="M60.5313 51.0135L69.5247 36.0581L54.9685 11.8521L34.418 11.8521L60.5313 51.0135Z"   fill="#FFFFFF" >
</path>
</g>
<g filter="url(#filter_57_1234)">
<path d="M54.1838 35.9568L52.4984 35.9568C52.4982 35.9044 52.4938 35.8525 52.4853 35.801C52.4767 35.7495 52.4641 35.6992 52.4472 35.6502L49.0796 26.6C49.0718 26.5795 49.0634 26.5593 49.0544 26.5395C49.0451 26.5196 49.0353 26.5002 49.025 26.4812C49.0145 26.4622 49.0033 26.4437 48.9915 26.4256C48.9797 26.4075 48.9673 26.39 48.9542 26.373C48.9412 26.356 48.9276 26.3395 48.9136 26.3236C48.8992 26.3077 48.8846 26.2924 48.8695 26.2778C48.8542 26.2631 48.8385 26.2491 48.8224 26.2357C48.8061 26.2224 48.7894 26.2097 48.7724 26.1978C48.7546 26.1854 48.7363 26.1737 48.7178 26.1628C48.6992 26.1518 48.6804 26.1416 48.6613 26.1322C48.642 26.1227 48.6225 26.114 48.6029 26.106C48.5831 26.098 48.563 26.0908 48.5427 26.0844C48.5226 26.078 48.5023 26.0724 48.4817 26.0676C48.4611 26.0628 48.4403 26.0588 48.4192 26.0555C48.3984 26.0523 48.3775 26.0499 48.3567 26.0484C48.3356 26.0468 48.3145 26.046 48.2934 26.0461L44.9288 26.0461C44.9037 26.0461 44.8787 26.0472 44.8539 26.0495C44.829 26.0518 44.8043 26.0552 44.7797 26.0598C44.7551 26.0643 44.7307 26.07 44.7063 26.0768C44.6822 26.0835 44.6584 26.0914 44.6348 26.1004C44.6111 26.1093 44.5879 26.1194 44.5651 26.1304C44.5422 26.1415 44.5199 26.1536 44.4981 26.1668C44.476 26.1799 44.4545 26.194 44.4337 26.2091C44.4129 26.2242 44.3926 26.2402 44.3731 26.2571L43.367 27.1572L40.5476 23.3657C40.5408 23.357 40.5339 23.3484 40.5269 23.3399C40.5198 23.3315 40.5127 23.3231 40.5054 23.315C40.4982 23.3068 40.4907 23.2988 40.4832 23.2909C40.4757 23.283 40.468 23.2753 40.4602 23.2677C40.4524 23.2601 40.4445 23.2527 40.4365 23.2454C40.4282 23.2381 40.4199 23.231 40.4117 23.224C40.4036 23.2171 40.3954 23.2103 40.3868 23.2037C40.3783 23.197 40.3696 23.1905 40.3608 23.1843C40.3521 23.178 40.3433 23.1718 40.3345 23.1659C40.3254 23.1599 40.3164 23.1541 40.3074 23.1485C40.2983 23.1429 40.2892 23.1375 40.2799 23.1322C40.2706 23.127 40.2612 23.1219 40.2516 23.117C40.2423 23.1122 40.2329 23.1075 40.2234 23.1029C40.2136 23.0984 40.2039 23.0941 40.1944 23.09C40.1846 23.0858 40.1748 23.0819 40.165 23.0781C40.155 23.0744 40.1451 23.0708 40.1353 23.0674C40.1252 23.064 40.1152 23.0609 40.1052 23.0579C40.0951 23.0549 40.085 23.0521 40.0747 23.0495C40.0646 23.0469 40.0545 23.0445 40.0442 23.0424C40.0339 23.0402 40.0236 23.0382 40.0133 23.0364C40.003 23.0346 39.9927 23.033 39.9824 23.0316C39.9719 23.0302 39.9615 23.029 39.9512 23.028C39.9406 23.027 39.9302 23.0263 39.9199 23.0257C39.9094 23.0251 39.899 23.0247 39.8887 23.0245C39.8782 23.0244 39.8677 23.0244 39.8573 23.0246C39.8468 23.0248 39.8364 23.0253 39.826 23.0259C39.8156 23.0266 39.8052 23.0274 39.7948 23.0284C39.7844 23.0294 39.774 23.0307 39.7636 23.0321C39.7533 23.0336 39.7429 23.0352 39.7326 23.0371C39.7224 23.0389 39.7121 23.041 39.7018 23.0432C39.6916 23.0455 39.6814 23.0479 39.6712 23.0505C39.6611 23.0532 39.651 23.056 39.6409 23.0591L32.9087 25.0735C32.8901 25.0788 32.8717 25.0848 32.8535 25.0916C32.8353 25.0983 32.8173 25.1057 32.7996 25.1138C32.7818 25.1219 32.7644 25.1307 32.7472 25.1401C32.73 25.1495 32.7131 25.1596 32.6966 25.1703C32.6801 25.1811 32.6639 25.1924 32.6481 25.2043C32.6323 25.2163 32.6168 25.2288 32.6018 25.242C32.5868 25.2551 32.5722 25.2688 32.5581 25.2831C32.544 25.2973 32.5303 25.3121 32.5171 25.3274C32.5042 25.3421 32.4919 25.3573 32.48 25.373C32.4682 25.3887 32.4568 25.4049 32.446 25.4215C32.4352 25.438 32.4249 25.455 32.4152 25.4724C32.4055 25.4898 32.3964 25.5076 32.3879 25.5257C32.3794 25.5438 32.3715 25.5622 32.3641 25.581C32.3568 25.5997 32.3501 25.6187 32.344 25.638C32.338 25.6572 32.3325 25.6767 32.3277 25.6964C32.3229 25.7161 32.3188 25.7359 32.3153 25.756L30.6315 35.8117C30.6289 35.8603 30.6309 35.9087 30.6375 35.9568L28.9356 35.9568C28.4748 35.9568 28.0952 36.3425 28.0952 36.8222C28.0952 37.3019 28.4748 37.6877 28.9356 37.6877L30.2836 37.6877L32.3047 42.2837C32.3047 42.6035 32.6843 42.8573 33.1451 42.8573L33.3018 42.8573C33.2767 42.926 33.2546 42.9958 33.2355 43.0667C33.2163 43.1378 33.2002 43.2097 33.187 43.2822C33.1739 43.3548 33.1638 43.4278 33.1569 43.5015C33.1498 43.5751 33.1459 43.6488 33.1451 43.7228C33.1451 45.1537 34.2777 46.3076 35.6724 46.3076C37.067 46.3076 38.1951 45.1503 38.1951 43.7228C38.1944 43.6488 38.1907 43.5751 38.1838 43.5015C38.177 43.4278 38.167 43.3548 38.154 43.2822C38.141 43.2097 38.125 43.138 38.1059 43.0671C38.0869 42.9959 38.0649 42.926 38.0399 42.8573L45.0809 42.8573C45.0563 42.9257 45.0346 42.9952 45.0158 43.0659C44.997 43.1365 44.9811 43.2078 44.9683 43.2798C44.9553 43.352 44.9454 43.4247 44.9386 43.4978C44.9318 43.5708 44.9281 43.6442 44.9273 43.7178C44.9273 45.1487 46.0599 46.3027 47.45 46.3027C48.8477 46.3027 49.9772 45.1454 49.9772 43.7178C49.9767 43.6442 49.973 43.5708 49.9659 43.4978C49.9589 43.4244 49.9489 43.3516 49.9358 43.2793C49.9228 43.2073 49.9066 43.136 49.8872 43.0654C49.8679 42.9948 49.8457 42.9255 49.8206 42.8573L49.9772 42.8573C50.4441 42.8573 50.8176 42.6002 50.8176 42.2804L52.8388 37.6844L54.1853 37.6844C54.6521 37.6844 55.0287 37.2987 55.0287 36.8239C55.0196 36.3458 54.6461 35.9584 54.1792 35.9584L54.1838 35.9568ZM36.5082 43.7145C36.5082 43.7288 36.5078 43.7431 36.507 43.7574C36.5063 43.7717 36.5052 43.786 36.5038 43.8003C36.5024 43.8145 36.5007 43.8287 36.4986 43.8427C36.4965 43.8567 36.4942 43.8707 36.4914 43.8847C36.4887 43.8987 36.4856 43.9126 36.4822 43.9264C36.4788 43.9404 36.4751 43.9541 36.4711 43.9676C36.4671 43.9813 36.4627 43.9948 36.458 44.008C36.4533 44.0214 36.4483 44.0348 36.443 44.0479C36.4378 44.0608 36.4322 44.0737 36.4262 44.0867C36.4203 44.0993 36.4142 44.1118 36.4076 44.1242C36.4011 44.1366 36.3944 44.1488 36.3873 44.1609C36.3802 44.1729 36.3729 44.1848 36.3652 44.1963C36.3576 44.2081 36.3497 44.2195 36.3415 44.2305C36.3334 44.2418 36.325 44.2528 36.3163 44.2635C36.3076 44.2742 36.2986 44.2846 36.2895 44.2948C36.2803 44.3049 36.2709 44.3148 36.2612 44.3245C36.2512 44.3346 36.241 44.3445 36.2306 44.3541C36.2201 44.3635 36.2095 44.3727 36.1986 44.3818C36.1878 44.3908 36.1768 44.3996 36.1656 44.4081C36.1544 44.4166 36.143 44.4247 36.1314 44.4324C36.1199 44.4404 36.1082 44.4481 36.0963 44.4555C36.0844 44.4627 36.0724 44.4697 36.0602 44.4765C36.0481 44.4831 36.0358 44.4894 36.0233 44.4955C36.0109 44.5015 35.9983 44.5073 35.9856 44.5128C35.9729 44.518 35.9601 44.5231 35.9472 44.5281C35.9343 44.5327 35.9213 44.5371 35.9082 44.5413C35.8952 44.5454 35.882 44.5491 35.8687 44.5524C35.8555 44.5559 35.8421 44.5591 35.8288 44.5619C35.8154 44.5646 35.802 44.5669 35.7885 44.5689C35.775 44.571 35.7615 44.5728 35.7479 44.5742C35.7343 44.5756 35.7207 44.5767 35.7072 44.5775C35.6936 44.5781 35.6799 44.5783 35.6663 44.5783C35.6527 44.5783 35.6391 44.5781 35.6255 44.5775C35.6119 44.5767 35.5983 44.5756 35.5848 44.5742C35.5712 44.5728 35.5577 44.571 35.5442 44.5689C35.5307 44.5669 35.5173 44.5646 35.5039 44.5619C35.4905 44.5591 35.4772 44.5559 35.464 44.5524C35.4507 44.5491 35.4375 44.5454 35.4245 44.5413C35.4114 44.5371 35.3984 44.5327 35.3855 44.5281C35.3725 44.5231 35.3598 44.518 35.3471 44.5128C35.3344 44.5073 35.3218 44.5015 35.3094 44.4955C35.2969 44.4894 35.2846 44.4831 35.2725 44.4765C35.2603 44.4697 35.2483 44.4627 35.2364 44.4555C35.2245 44.4481 35.2128 44.4404 35.2012 44.4324C35.1897 44.4247 35.1783 44.4166 35.1671 44.4081C35.1559 44.3996 35.1449 44.3908 35.1341 44.3818C35.1232 44.3727 35.1126 44.3635 35.1021 44.3541C35.0917 44.3445 35.0815 44.3346 35.0714 44.3245C35.0618 44.3148 35.0525 44.3048 35.0434 44.2944C35.0343 44.2842 35.0254 44.2738 35.0168 44.2631C35.0082 44.2524 34.9998 44.2413 34.9916 44.2301C34.9836 44.2191 34.9757 44.2077 34.9681 44.1959C34.9605 44.1844 34.9532 44.1725 34.9462 44.1605C34.9391 44.1483 34.9324 44.1361 34.9259 44.1238C34.9194 44.1114 34.9132 44.0989 34.9073 44.0863C34.9014 44.0733 34.8959 44.0604 34.8906 44.0475C34.8853 44.0343 34.8803 44.021 34.8756 44.0076C34.8709 43.9944 34.8666 43.9809 34.8625 43.9672C34.8585 43.9537 34.8547 43.9401 34.8513 43.9264C34.8479 43.9126 34.8448 43.8987 34.842 43.8847C34.8392 43.8707 34.8368 43.8567 34.8347 43.8427C34.8325 43.8284 34.8308 43.8143 34.8293 43.8003C34.8278 43.786 34.8267 43.7717 34.8259 43.7574C34.8251 43.7431 34.8246 43.7288 34.8244 43.7145C34.8246 43.7002 34.825 43.6859 34.8258 43.6717C34.8265 43.6577 34.8276 43.6435 34.8291 43.6292C34.8305 43.6152 34.8323 43.6012 34.8344 43.5872C34.8365 43.5729 34.839 43.5589 34.8417 43.5452C34.8445 43.5311 34.8476 43.5173 34.851 43.5035C34.8544 43.4898 34.8581 43.4762 34.8622 43.4627C34.8662 43.4493 34.8706 43.4358 34.8753 43.4223C34.8799 43.4091 34.8849 43.3961 34.8902 43.3832C34.8955 43.37 34.9011 43.3571 34.907 43.3445C34.9129 43.3318 34.9191 43.3193 34.9256 43.307C34.932 43.2946 34.9388 43.2825 34.9459 43.2707C34.9529 43.2586 34.9602 43.2468 34.9679 43.2352C34.9755 43.2237 34.9833 43.2124 34.9915 43.2014C34.9996 43.1902 35.008 43.1792 35.0167 43.1685C35.0253 43.158 35.0342 43.1477 35.0433 43.1376C35.0525 43.1274 35.0618 43.1175 35.0714 43.1079C35.0815 43.0977 35.0918 43.0878 35.1022 43.0782C35.1127 43.0689 35.1234 43.0597 35.1343 43.0506C35.1452 43.0415 35.1562 43.0327 35.1674 43.0242C35.1787 43.0157 35.1901 43.0076 35.2017 42.9999C35.2133 42.9919 35.225 42.9843 35.2369 42.9768C35.2489 42.9697 35.2609 42.9628 35.2731 42.9562C35.2853 42.9494 35.2977 42.9429 35.3101 42.9369C35.3226 42.9308 35.3352 42.9252 35.3479 42.9199C35.3606 42.9145 35.3734 42.9094 35.3864 42.9047C35.3993 42.8998 35.4123 42.8952 35.4254 42.8911C35.4386 42.887 35.4518 42.8833 35.4651 42.88C35.4783 42.8764 35.4917 42.8732 35.5051 42.8705C35.5185 42.8678 35.532 42.8654 35.5455 42.8635C35.559 42.8613 35.5725 42.8595 35.5861 42.8581C35.5997 42.8568 35.6133 42.8558 35.6269 42.8553C35.6406 42.8544 35.6542 42.854 35.6679 42.854C35.6815 42.854 35.6951 42.8544 35.7088 42.8553C35.7224 42.8558 35.736 42.8568 35.7496 42.8581C35.7632 42.8595 35.7767 42.8613 35.7902 42.8635C35.8037 42.8654 35.8172 42.8678 35.8306 42.8705C35.844 42.8732 35.8574 42.8764 35.8706 42.88C35.8839 42.8833 35.8971 42.887 35.9103 42.8911C35.9234 42.8952 35.9364 42.8996 35.9493 42.9043C35.9623 42.9093 35.9751 42.9145 35.9878 42.9199C36.0005 42.9252 36.0131 42.9308 36.0256 42.9369C36.038 42.9429 36.0504 42.9494 36.0626 42.9562C36.0748 42.9628 36.0868 42.9697 36.0988 42.9768C36.1107 42.9843 36.1224 42.9919 36.134 42.9999C36.1456 43.0076 36.157 43.0157 36.1683 43.0242C36.1795 43.0327 36.1905 43.0415 36.2014 43.0506C36.2123 43.0597 36.223 43.0689 36.2335 43.0782C36.2439 43.0878 36.2542 43.0977 36.2643 43.1079C36.2738 43.1175 36.2831 43.1274 36.2922 43.1376C36.3013 43.1477 36.3101 43.1582 36.3187 43.1689C36.3273 43.1793 36.3357 43.1902 36.3437 43.2014C36.3518 43.2124 36.3596 43.2238 36.3672 43.2357C36.3747 43.2472 36.382 43.2589 36.389 43.2707C36.396 43.2828 36.4027 43.295 36.4091 43.3074C36.4156 43.3197 36.4217 43.3322 36.4275 43.3449C36.4334 43.3575 36.4389 43.3703 36.4441 43.3832C36.4494 43.3964 36.4543 43.4096 36.4589 43.4228C36.4635 43.4359 36.4678 43.4494 36.4718 43.4631C36.4758 43.4766 36.4794 43.4902 36.4828 43.5039C36.4861 43.5177 36.4891 43.5314 36.4918 43.5452C36.4945 43.5592 36.4969 43.5732 36.4989 43.5872C36.5009 43.6012 36.5026 43.6153 36.504 43.6296C36.5054 43.6437 36.5064 43.6578 36.5071 43.6721C36.5078 43.6861 36.5082 43.7002 36.5082 43.7145ZM48.2934 43.7145C48.2934 44.1893 47.9139 44.58 47.453 44.58C46.9922 44.58 46.6096 44.1909 46.6096 43.7145C46.6096 43.2381 46.9891 42.854 47.453 42.854C47.9169 42.854 48.2934 43.2398 48.2934 43.7145ZM49.4772 41.1297L33.6437 41.1297L32.1255 37.6811L50.9893 37.6811L49.4772 41.1297Z"   fill="#FFF01A" >
</path>
</g>
<defs>
<linearGradient id="linear_fill_57_1223" x1="80.2933012523099" y1="35.37912935072836" x2="196.4715957307635" y2="35.37912935072836" gradientUnits="userSpaceOnUse">
<stop offset="0" stop-color="#AC7000"  />
<stop offset="1" stop-color="#AB8900" stop-opacity="0" />
</linearGradient>
<linearGradient id="linear_fill_57_1224" x1="28.753947899374907" y1="15.416150746919811" x2="211.41241283865384" y2="15.416150746919811" gradientUnits="userSpaceOnUse">
<stop offset="0" stop-color="#FFFF56"  />
<stop offset="1" stop-color="#FFD53F" stop-opacity="0" />
</linearGradient>
<linearGradient id="linear_fill_57_1225" x1="28.753947899374907" y1="54.93080341073437" x2="211.41241283865384" y2="54.93080341073437" gradientUnits="userSpaceOnUse">
<stop offset="0" stop-color="#FFFF56"  />
<stop offset="1" stop-color="#FFD53F" stop-opacity="0" />
</linearGradient>
<linearGradient id="linear_fill_57_1227" x1="41.709716796875" y1="16.78369140625" x2="41.709716796875" y2="56.23486328125" gradientUnits="userSpaceOnUse">
<stop offset="0" stop-color="#9A5A00"  />
<stop offset="1" stop-color="#D4CA71"  />
</linearGradient>
<filter id="filter_57_1227" x="0" y="0" width="83.41943359375" height="76.09326171875" filterUnits="userSpaceOnUse" color-interpolation-filters="sRGB">
<feFlood flood-opacity="0" result="feFloodId_57_1227"/>
<feColorMatrix in="SourceAlpha" type="matrix" values="0 0 0 0 0 0 0 0 0 0 0 0 0 0 0 0 0 0 127 0" result="hardAlpha_57_1227"/>
<feOffset dx="0" dy="3"/>
<feGaussianBlur stdDeviation="7.5"/>
<feComposite in2="hardAlpha_57_1227" operator="out"/>
<feColorMatrix type="matrix" values="0 0 0 0 0.6 0 0 0 0 0.44313725490196076 0 0 0 0 0 0 0 0 1 0"/>
<feBlend mode="normal" in2="feFloodId_57_1227" result="dropShadow_1_57_1227"/>
<feBlend mode="normal" in="SourceGraphic" in2="dropShadow_1_57_1227" result="shape_57_1227"/>
</filter>
<linearGradient id="linear_fill_57_1228" x1="41.708251953125" y1="9.7333984375" x2="41.708251953125" y2="58.72314453125" gradientUnits="userSpaceOnUse">
<stop offset="0" stop-color="#E5F063"  />
<stop offset="0.18263669312000275" stop-color="#D3CD48"  />
<stop offset="0.4353005290031433" stop-color="#BFA329"  />
<stop offset="0.6646978855133057" stop-color="#B08512"  />
<stop offset="0.8606106042861938" stop-color="#A77304"  />
<stop offset="1" stop-color="#A46D00"  />
</linearGradient>
<filter id="filter_57_1234" x="26.09521484375" y="23.0244140625" width="30.933349609375" height="28.283203125" filterUnits="userSpaceOnUse" color-interpolation-filters="sRGB">
<feFlood flood-opacity="0" result="feFloodId_57_1234"/>
<feColorMatrix in="SourceAlpha" type="matrix" values="0 0 0 0 0 0 0 0 0 0 0 0 0 0 0 0 0 0 127 0" result="hardAlpha_57_1234"/>
<feOffset dx="0" dy="3"/>
<feGaussianBlur stdDeviation="1"/>
<feComposite in2="hardAlpha_57_1234" operator="out"/>
<feColorMatrix type="matrix" values="0 0 0 0 0 0 0 0 0 0 0 0 0 0 0 0 0 0 0.35 0"/>
<feBlend mode="normal" in2="feFloodId_57_1234" result="dropShadow_1_57_1234"/>
<feBlend mode="normal" in="SourceGraphic" in2="dropShadow_1_57_1234" result="shape_57_1234"/>
</filter>
</defs>
</svg>
