<svg xmlns="http://www.w3.org/2000/svg" xmlns:xlink="http://www.w3.org/1999/xlink" width="233.89306640625" height="76.0927734375" viewBox="0 0 233.89306640625 76.0927734375" fill="none">
<g opacity="0.68">
<rect transform="matrix(-0.9999998807907104, 0, 0, 1, 196.57421875, 15.98095703125)" x="0" y="0" width="180.35784912109375" height="38.9495849609375"   fill="url(#linear_fill_57_1249)" >
</rect>
</g>
<rect transform="matrix(-0.9999999403953552, 0, 0, 0.9999874830245972, 184.328125, 14.8515625)" x="0" y="0" width="184.32806396484375" height="1.12921142578125"   fill="url(#linear_fill_57_1250)" >
</rect>
<rect transform="matrix(-0.9999999403953552, 0, 0, 0.9999866485595703, 184.328125, 54.36572265625)" x="0" y="0" width="184.32806396484375" height="1.12921142578125"   fill="url(#linear_fill_57_1251)" >
</rect>
<g filter="url(#filter_57_1253)">
<path d="M165.474 35.0464L178.829 12L205.538 12L218.893 35.0464L205.538 58.093L178.829 58.093L165.474 35.0464Z"   fill="url(#linear_fill_57_1253)" >
</path>
</g>
<path d="M178.279 11.6237L164.371 35.6246L178.279 59.6237L206.093 59.6237L220 35.6246L206.093 11.6237L178.279 11.6237ZM179.384 13.5304L166.582 35.6243L179.384 57.7167L204.989 57.7167L217.791 35.6243L204.989 13.5304L179.384 13.5304Z" fill-rule="evenodd"  fill="url(#linear_fill_57_1254)" >
</path>
<g filter="url(#filter_57_1257)">
<path d="M202.21 36.0977C202.21 41.4835 197.861 45.7638 192.387 45.7638C186.914 45.7596 182.564 41.4793 182.564 36.0977C182.564 30.716 186.914 26.4316 192.387 26.4316L192.387 22.289C184.67 22.289 178.357 28.505 178.357 36.0977C178.357 43.6946 184.67 49.9064 192.387 49.9064C200.105 49.9023 206.417 43.6904 206.417 36.0977L202.21 36.0977ZM205.998 33.0606L201.929 34.0284C201.09 30.2988 198.28 27.5371 194.35 26.5692L195.331 22.5643C200.667 23.6698 204.874 27.8124 205.998 33.0606ZM195.509 34.1162C195.647 34.1162 195.769 34.1913 195.829 34.3123C195.885 34.4291 195.868 34.5751 195.781 34.6752L189.387 42.2179C189.275 42.3472 189.084 42.3806 188.933 42.2971C188.782 42.2137 188.717 42.0385 188.777 41.8799L190.727 36.8612L189.11 36.8612C188.993 36.8612 188.881 36.8028 188.816 36.7111C188.751 36.6151 188.738 36.4983 188.782 36.3898L191.346 30.2197C191.397 30.0904 191.527 30.0028 191.674 30.0028L195.085 30.0028C195.211 30.0028 195.332 30.0695 195.392 30.178C195.457 30.2823 195.453 30.4116 195.388 30.5201L193.153 34.1162L195.509 34.1162Z" fill-rule="evenodd"  fill="#A8F000" >
</path>
</g>
<g opacity="0.3">
<path d="M173.363 51.0137L164.37 36.0583L178.926 11.8525L199.477 11.8525L173.363 51.0137Z"   fill="#FFFFFF" >
</path>
</g>
<defs>
<linearGradient id="linear_fill_57_1249" x1="154.65807340008905" y1="19.47476462155464" x2="22.194869690526502" y2="19.47476462155464" gradientUnits="userSpaceOnUse">
<stop offset="0" stop-color="#4F006A" stop-opacity="0" />
<stop offset="1" stop-color="#A7FF99"  />
</linearGradient>
<linearGradient id="linear_fill_57_1250" x1="159.84188410343268" y1="0.5645667425742431" x2="6.823175620544362" y2="0.5645667425742431" gradientUnits="userSpaceOnUse">
<stop offset="0" stop-color="#8A7DCD" stop-opacity="0" />
<stop offset="1" stop-color="#B1FF99"  />
</linearGradient>
<linearGradient id="linear_fill_57_1251" x1="159.84188410343268" y1="0.564586227732434" x2="6.823175620544362" y2="0.564586227732434" gradientUnits="userSpaceOnUse">
<stop offset="0" stop-color="#8A7DCD" stop-opacity="0" />
<stop offset="1" stop-color="#B1FF99"  />
</linearGradient>
<linearGradient id="linear_fill_57_1253" x1="192.183349609375" y1="16.783203125" x2="192.183349609375" y2="56.234375" gradientUnits="userSpaceOnUse">
<stop offset="0.1667" stop-color="#009157"  />
<stop offset="1" stop-color="#008A39"  />
</linearGradient>
<filter id="filter_57_1253" x="150.473876953125" y="0" width="83.419189453125" height="76.0927734375" filterUnits="userSpaceOnUse" color-interpolation-filters="sRGB">
<feFlood flood-opacity="0" result="feFloodId_57_1253"/>
<feColorMatrix in="SourceAlpha" type="matrix" values="0 0 0 0 0 0 0 0 0 0 0 0 0 0 0 0 0 0 127 0" result="hardAlpha_57_1253"/>
<feOffset dx="0" dy="3"/>
<feGaussianBlur stdDeviation="7.5"/>
<feComposite in2="hardAlpha_57_1253" operator="out"/>
<feColorMatrix type="matrix" values="0 0 0 0 0 0 0 0 0 0.5686274509803921 0 0 0 0 0.18823529411764706 0 0 0 1 0"/>
<feBlend mode="normal" in2="feFloodId_57_1253" result="dropShadow_1_57_1253"/>
<feBlend mode="normal" in="SourceGraphic" in2="dropShadow_1_57_1253" result="shape_57_1253"/>
</filter>
<linearGradient id="linear_fill_57_1254" x1="192.185791015625" y1="9.73388671875" x2="192.185791015625" y2="58.72265625" gradientUnits="userSpaceOnUse">
<stop offset="0" stop-color="#D7FFCF"  />
<stop offset="1" stop-color="#7AFF6B"  />
</linearGradient>
<filter id="filter_57_1257" x="176.357421875" y="22.2890625" width="32.059814453125" height="31.6171875" filterUnits="userSpaceOnUse" color-interpolation-filters="sRGB">
<feFlood flood-opacity="0" result="feFloodId_57_1257"/>
<feColorMatrix in="SourceAlpha" type="matrix" values="0 0 0 0 0 0 0 0 0 0 0 0 0 0 0 0 0 0 127 0" result="hardAlpha_57_1257"/>
<feOffset dx="0" dy="2"/>
<feGaussianBlur stdDeviation="1"/>
<feComposite in2="hardAlpha_57_1257" operator="out"/>
<feColorMatrix type="matrix" values="0 0 0 0 0 0 0 0 0 0.30980392156862746 0 0 0 0 0 0 0 0 0.7 0"/>
<feBlend mode="normal" in2="feFloodId_57_1257" result="dropShadow_1_57_1257"/>
<feBlend mode="normal" in="SourceGraphic" in2="dropShadow_1_57_1257" result="shape_57_1257"/>
</filter>
</defs>
</svg>
