<svg xmlns="http://www.w3.org/2000/svg" xmlns:xlink="http://www.w3.org/1999/xlink" width="233.89453125" height="76.09375" viewBox="0 0 233.89453125 76.09375" fill="none">
<rect x="37.3193359375" y="15.98046875" width="177.3634033203125" height="38.949981689453125"   fill="url(#linear_fill_57_1210)" >
</rect>
<rect x="49.564453125" y="14.8515625" width="184.329833984375" height="1.12921142578125"   fill="url(#linear_fill_57_1211)" >
</rect>
<rect x="49.564453125" y="54.36572265625" width="184.329833984375" height="1.12921142578125"   fill="url(#linear_fill_57_1212)" >
</rect>
<g filter="url(#filter_57_1214)">
<path d="M68.4197 35.0467L55.0648 12L28.3549 12L15 35.0467L28.3549 58.0935L55.0648 58.0935L68.4197 35.0467Z"   fill="url(#linear_fill_57_1214)" >
</path>
</g>
<path d="M55.6169 11.6233L69.5243 35.6238L55.6169 59.6234L27.8025 59.6234L13.8945 35.6238L27.8025 11.6233L55.6169 11.6233ZM54.5122 13.53L67.3144 35.6236L54.5122 57.7167L28.9068 57.7167L16.1045 35.6236L28.9068 13.53L54.5122 13.53Z" fill-rule="evenodd"  fill="url(#linear_fill_57_1215)" >
</path>
<g filter="url(#filter_57_1218)">
<path d="M35.4719 45.3328C33.6923 45.3328 32.6574 44.5527 32.6574 44.5527C31.6226 43.7725 31.197 42.3637 31.197 42.3637C30.7715 40.9548 30.7715 39.0452 30.7715 39.0452L30.7715 32.2454C30.7715 30.2893 31.197 28.8804 31.197 28.8804C31.6226 27.4715 32.6574 26.703 32.6574 26.703C33.6923 25.9346 35.4719 25.9346 35.4719 25.9346C37.2128 25.9346 38.1896 26.6215 38.1896 26.6215C39.1664 27.3085 39.5726 28.5427 39.5726 28.5427C39.9789 29.777 39.9789 31.3838 39.9789 31.3838L39.9789 33.0139L36.5938 33.0139L36.5938 31.1276C36.5938 30.5687 36.5454 30.0564 36.5454 30.0564C36.4971 29.5441 36.265 29.2064 36.265 29.2064C36.0328 28.8688 35.4719 28.8688 35.4719 28.8688C34.9303 28.8688 34.6691 29.2181 34.6691 29.2181C34.408 29.5674 34.3403 30.0913 34.3403 30.0913C34.2726 30.6153 34.2726 31.1975 34.2726 31.1975L34.2726 40.0699C34.2726 40.6986 34.3596 41.2226 34.3596 41.2226C34.4467 41.7465 34.7078 42.0609 34.7078 42.0609C34.969 42.3753 35.4719 42.3753 35.4719 42.3753C36.0135 42.3753 36.2456 42.0376 36.2456 42.0376C36.4777 41.7 36.5358 41.1644 36.5358 41.1644C36.5938 40.6288 36.5938 40.0699 36.5938 40.0699L36.5938 38.0905L39.9789 38.0905L39.9789 39.7206C39.9789 41.3274 39.5823 42.5965 39.5823 42.5965C39.1858 43.8657 38.209 44.5992 38.209 44.5992C37.2321 45.3328 35.4719 45.3328 35.4719 45.3328ZM47.1681 45.3328C45.4078 45.3328 44.3827 44.5876 44.3827 44.5876C43.3575 43.8424 42.9126 42.4452 42.9126 42.4452C42.4677 41.0479 42.4677 39.1151 42.4677 39.1151L42.4677 32.1057C42.4677 30.1495 42.9126 28.7756 42.9126 28.7756C43.3575 27.4017 44.3827 26.6681 44.3827 26.6681C45.4078 25.9346 47.1681 25.9346 47.1681 25.9346C48.9477 25.9346 49.9825 26.6681 49.9825 26.6681C51.0174 27.4017 51.4623 28.7756 51.4623 28.7756C51.9072 30.1495 51.9072 32.1057 51.9072 32.1057L51.9072 39.1151C51.9072 41.0479 51.4623 42.4452 51.4623 42.4452C51.0174 43.8424 49.9825 44.5876 49.9825 44.5876C48.9477 45.3328 47.1681 45.3328 47.1681 45.3328ZM47.1681 42.3753C47.7097 42.3753 47.9612 42.0493 47.9612 42.0493C48.2126 41.7233 48.29 41.2109 48.29 41.2109C48.3674 40.6986 48.3674 40.163 48.3674 40.163L48.3674 31.081C48.3674 30.5221 48.29 30.0215 48.29 30.0215C48.2126 29.5208 47.9612 29.1948 47.9612 29.1948C47.7097 28.8688 47.1681 28.8688 47.1681 28.8688C46.6652 28.8688 46.4137 29.1948 46.4137 29.1948C46.1622 29.5208 46.0849 30.0215 46.0849 30.0215C46.0075 30.5221 46.0075 31.081 46.0075 31.081L46.0075 40.163C46.0075 40.6986 46.0752 41.2109 46.0752 41.2109C46.1429 41.7233 46.3847 42.0493 46.3847 42.0493C46.6265 42.3753 47.1681 42.3753 47.1681 42.3753ZM54.0575 45.0533L54.0575 43.6794L55.9338 40.2096C56.1466 39.8254 56.3352 39.4644 56.3352 39.4644C56.5237 39.1035 56.6446 38.7309 56.6446 38.7309C56.7655 38.3583 56.7655 37.9507 56.7655 37.9507C56.7655 37.5432 56.6301 37.3453 56.6301 37.3453C56.4947 37.1473 56.2626 37.1473 56.2626 37.1473C56.0015 37.1473 55.8564 37.322 55.8564 37.322C55.7113 37.4966 55.6581 37.7877 55.6581 37.7877C55.6049 38.0788 55.6049 38.4398 55.6049 38.4398L55.6049 38.9055L54.0381 38.9055L54.0381 38.4048C54.0381 37.5665 54.2606 36.9086 54.2606 36.9086C54.483 36.2508 54.9666 35.8724 54.9666 35.8724C55.4502 35.4939 56.2336 35.4939 56.2336 35.4939C57.2878 35.4939 57.8246 36.1518 57.8246 36.1518C58.3614 36.8097 58.3614 37.9857 58.3614 37.9857C58.3614 38.5562 58.2114 39.0452 58.2114 39.0452C58.0615 39.5343 57.8149 39.9942 57.8149 39.9942C57.5683 40.4541 57.2878 40.9548 57.2878 40.9548L55.8564 43.528L58.1486 43.528L58.1486 45.0533L54.0575 45.0533Z" fill-rule="evenodd"  fill="#57F4FF" >
</path>
</g>
<g opacity="0.3">
<path d="M60.5301 51.0135L69.5236 36.0581L54.9671 11.8521L34.4165 11.8521L60.5301 51.0135Z"   fill="#FFFFFF" >
</path>
</g>
<defs>
<linearGradient id="linear_fill_57_1210" x1="81.33273946914414" y1="35.455453790727006" x2="200.3224615517247" y2="35.455453790727006" gradientUnits="userSpaceOnUse">
<stop offset="0" stop-color="#004766"  />
<stop offset="1" stop-color="#02CAE9" stop-opacity="0" />
</linearGradient>
<linearGradient id="linear_fill_57_1211" x1="28.752341060704566" y1="15.416150746919811" x2="211.41213798118406" y2="15.416150746919811" gradientUnits="userSpaceOnUse">
<stop offset="0" stop-color="#17DBFE"  />
<stop offset="0.5223463773727417" stop-color="#15B9C1" stop-opacity="0.9176" />
<stop offset="1" stop-color="#02CAE9" stop-opacity="0" />
</linearGradient>
<linearGradient id="linear_fill_57_1212" x1="28.752341060704566" y1="54.930330388328" x2="211.41213798118406" y2="54.930330388328" gradientUnits="userSpaceOnUse">
<stop offset="0" stop-color="#17DBFE"  />
<stop offset="0.5223463773727417" stop-color="#15B9C1" stop-opacity="0.9176" />
<stop offset="1" stop-color="#02CAE9" stop-opacity="0" />
</linearGradient>
<linearGradient id="linear_fill_57_1214" x1="41.7099609375" y1="16.78369140625" x2="41.7099609375" y2="56.23486328125" gradientUnits="userSpaceOnUse">
<stop offset="0" stop-color="#004766"  />
<stop offset="1" stop-color="#02CAE9"  />
</linearGradient>
<filter id="filter_57_1214" x="0" y="0" width="83.419677734375" height="76.09375" filterUnits="userSpaceOnUse" color-interpolation-filters="sRGB">
<feFlood flood-opacity="0" result="feFloodId_57_1214"/>
<feColorMatrix in="SourceAlpha" type="matrix" values="0 0 0 0 0 0 0 0 0 0 0 0 0 0 0 0 0 0 127 0" result="hardAlpha_57_1214"/>
<feOffset dx="0" dy="3"/>
<feGaussianBlur stdDeviation="7.5"/>
<feComposite in2="hardAlpha_57_1214" operator="out"/>
<feColorMatrix type="matrix" values="0 0 0 0 0 0 0 0 0 0.5450980392156862 0 0 0 0 0.6 0 0 0 1 0"/>
<feBlend mode="normal" in2="feFloodId_57_1214" result="dropShadow_1_57_1214"/>
<feBlend mode="normal" in="SourceGraphic" in2="dropShadow_1_57_1214" result="shape_57_1214"/>
</filter>
<linearGradient id="linear_fill_57_1215" x1="41.70947265625" y1="9.7333984375" x2="41.70947265625" y2="58.72314453125" gradientUnits="userSpaceOnUse">
<stop offset="0" stop-color="#80FFFF"  />
<stop offset="0.2434573471546173" stop-color="#53CBD2"  />
<stop offset="0.478672593832016" stop-color="#2FA1AE"  />
<stop offset="0.6904465556144714" stop-color="#158394"  />
<stop offset="0.8713306188583374" stop-color="#057184"  />
<stop offset="1" stop-color="#006B7F"  />
</linearGradient>
<filter id="filter_57_1218" x="28.771484375" y="25.9345703125" width="31.58984375" height="24.3984375" filterUnits="userSpaceOnUse" color-interpolation-filters="sRGB">
<feFlood flood-opacity="0" result="feFloodId_57_1218"/>
<feColorMatrix in="SourceAlpha" type="matrix" values="0 0 0 0 0 0 0 0 0 0 0 0 0 0 0 0 0 0 127 0" result="hardAlpha_57_1218"/>
<feOffset dx="0" dy="3"/>
<feGaussianBlur stdDeviation="1"/>
<feComposite in2="hardAlpha_57_1218" operator="out"/>
<feColorMatrix type="matrix" values="0 0 0 0 0 0 0 0 0 0.10980392156862745 0 0 0 0 0.30196078431372547 0 0 0 0.6 0"/>
<feBlend mode="normal" in2="feFloodId_57_1218" result="dropShadow_1_57_1218"/>
<feBlend mode="normal" in="SourceGraphic" in2="dropShadow_1_57_1218" result="shape_57_1218"/>
</filter>
</defs>
</svg>
